<svg width="187" height="195" viewBox="0 0 187 195" fill="none" xmlns="http://www.w3.org/2000/svg">
<path d="M70.8523 66.5774L19.2403 61.9623C18.6035 61.9029 18.0304 62.349 17.9445 62.9681L16.574 72.8579C16.5269 73.1931 16.6322 73.5283 16.8592 73.7825C17.0862 74.0366 17.4157 74.1826 17.759 74.1826H70.6723C71.3285 74.1826 71.8601 73.6689 71.8684 73.0282L71.9376 67.7535C71.9459 67.1424 71.4725 66.6315 70.8495 66.5747L70.8523 66.5774Z" fill="#EF4B4A"/>
<path d="M179.562 41.2419C176.246 43.3794 171.523 45.1781 167.686 45.1781C167.331 45.1781 166.982 45.1615 166.641 45.131C161.996 44.6896 157.636 42.3467 154.675 38.702C154.26 38.1884 154.334 37.4334 154.84 37.0142C155.348 36.5951 156.096 36.6673 156.511 37.1808C159.071 40.3342 162.845 42.3606 166.864 42.7409C170.531 43.0879 175.839 41.0171 179.064 38.6853C179.355 37.7721 179.586 36.8255 179.732 35.8428C181.186 26.08 174.525 16.9806 164.857 15.5122C163.832 15.3567 162.82 15.2957 161.82 15.3206C159.747 8.03392 153.636 2.26562 145.73 1.06366C139.476 0.114301 133.469 2.22953 129.195 6.29899C128.837 9.68003 127.518 15.1985 125.044 18.0549C122.559 20.9252 119.15 22.9155 115.45 23.6622C115.37 23.6788 115.293 23.6844 115.216 23.6844C114.661 23.6844 114.166 23.2902 114.053 22.7184C113.924 22.0688 114.342 21.4359 114.985 21.3055C118.177 20.6615 121.115 18.946 123.257 16.4726C125.121 14.3213 126.531 9.41076 126.858 5.82154C124.307 3.34266 121.008 1.60218 117.25 1.03035C107.582 -0.4381 98.5626 6.28788 97.1084 16.0396V35.6207C97.1304 35.6263 97.1524 35.6263 97.1744 35.6318C98.9007 36.1037 101.072 36.026 102.576 35.4348C104.157 34.8157 105.529 33.6804 106.436 32.2369C106.788 31.679 107.524 31.5152 108.077 31.8677C108.629 32.2231 108.794 32.9642 108.442 33.5249C107.263 35.3987 105.485 36.8699 103.437 37.6749C102.315 38.1135 100.957 38.3383 99.5852 38.3383C98.7468 38.3383 97.9056 38.2495 97.1084 38.0802V56.7258C99.4725 53.628 103.255 51.1519 107.329 50.1997C112.206 49.0616 117.588 50.4051 121.379 53.7085C121.877 54.1415 121.932 54.8993 121.503 55.4018C121.074 55.9042 120.324 55.9597 119.826 55.5267C116.601 52.7147 112.019 51.571 107.865 52.5398C103.371 53.5891 99.1509 56.873 97.6032 60.526C97.4988 60.7731 97.3201 60.9591 97.1084 61.084V77.0593H179.05C183.045 73.3923 185.862 68.3652 186.728 62.558C187.946 54.3913 185.029 46.5605 179.562 41.2419ZM148.35 13.5024C148.96 13.2498 149.65 13.5441 149.9 14.1548C150.15 14.7682 149.859 15.4678 149.251 15.7204C145.271 17.3748 142.5 21.7274 142.662 26.0717C142.687 26.7323 142.175 27.2903 141.521 27.3153C141.505 27.3153 141.491 27.3153 141.474 27.3153C140.839 27.3153 140.311 26.8073 140.287 26.1605C140.086 20.8474 143.476 15.5205 148.347 13.4969L148.35 13.5024ZM126.171 36.051C131.424 36.1676 136.617 38.3356 140.419 41.997C144.221 45.6611 146.609 50.7965 146.97 56.0929C147.016 56.7536 146.521 57.3254 145.867 57.3726C145.84 57.3726 145.812 57.3726 145.785 57.3726C145.166 57.3726 144.644 56.8896 144.6 56.2539C144.278 51.5516 142.159 46.9852 138.78 43.7319C135.402 40.4758 130.786 38.5521 126.118 38.4466C125.461 38.4327 124.942 37.8831 124.956 37.2197C124.972 36.5562 125.536 36.0288 126.171 36.0455V36.051ZM171.911 64.2457C171.735 64.5428 171.441 64.7482 171.103 64.812L119.419 74.3139C119.348 74.3278 119.276 74.3333 119.205 74.3333C118.647 74.3333 118.152 73.9364 118.039 73.3645L117.008 68.0487C116.89 67.4352 117.258 66.8301 117.855 66.6635L167.43 52.7341C168.043 52.562 168.681 52.909 168.879 53.5197L172.018 63.2631C172.126 63.5934 172.084 63.9515 171.908 64.2485L171.911 64.2457Z" fill="#EF4B4A"/>
<path d="M25.9082 105.824C25.8456 106.037 25.7667 106.242 25.7122 106.461C23.4367 115.45 28.8505 124.59 37.8055 126.877C46.7604 129.162 55.865 123.727 58.1432 114.737C58.1977 114.519 58.2276 114.303 58.2739 114.084L25.9082 105.824Z" fill="#EF4B4A"/>
<path d="M162.555 105.824C162.618 106.037 162.697 106.242 162.751 106.461C165.027 115.45 159.613 124.59 150.658 126.877C141.703 129.162 132.598 123.727 130.32 114.737C130.266 114.519 130.236 114.303 130.189 114.084L162.555 105.824Z" fill="#EF4B4A"/>
<path d="M62.1554 36.1354C56.8911 36.2511 51.6874 38.4026 47.8749 42.0388C44.0651 45.6751 41.6712 50.7713 41.3104 56.0246C41.2663 56.6802 41.7594 57.2477 42.4178 57.2945C42.4453 57.2945 42.4728 57.2945 42.5004 57.2945C43.1202 57.2945 43.6436 56.8152 43.6877 56.1843C44.01 51.5178 46.1339 46.9863 49.5194 43.7578C52.905 40.5265 57.5274 38.6147 62.205 38.5128C62.8633 38.499 63.384 37.9536 63.3702 37.2952C63.3564 36.6368 62.7862 36.1024 62.1526 36.1299L62.1554 36.1354Z" fill="#EF4B4A"/>
<path d="M45.6268 26.2348C45.602 26.8904 46.1144 27.4442 46.7701 27.4689C46.7866 27.4689 46.8004 27.4689 46.8169 27.4689C47.4532 27.4689 47.9821 26.9648 48.0069 26.323C48.208 21.0504 44.8114 15.7641 39.9301 13.7559C39.3213 13.5052 38.6271 13.7972 38.3764 14.4033C38.1257 15.0121 38.415 15.7063 39.0238 15.9569C43.0154 17.5988 45.7921 21.9182 45.6268 26.2293V26.2348Z" fill="#EF4B4A"/>
<path d="M7.44374 76.8332H10.3417C10.3417 76.5082 10.2205 76.1886 9.96156 75.9517C6.03607 72.3816 3.43561 67.5223 2.64501 62.2635C1.50179 54.6632 4.13532 47.1483 9.70262 41.9391C12.6915 44.063 16.3085 45.2227 19.9722 45.2227C20.5122 45.2227 21.0549 45.1979 21.5948 45.1456C26.2503 44.7076 30.622 42.3826 33.5861 38.7657C34.0021 38.256 33.9277 37.5067 33.4208 37.0908C32.9112 36.6721 32.1619 36.7492 31.746 37.2561C29.1813 40.3854 25.3991 42.3964 21.3716 42.7738C17.6142 43.1291 13.8072 42.0273 10.7907 39.7684C10.2481 38.4984 9.86515 37.1459 9.65579 35.752C8.29771 26.733 14.5344 18.287 23.5617 16.9289C24.4983 16.7884 25.4514 16.7278 26.399 16.7526L27.3191 16.7747L27.5725 15.8904C29.5807 8.89614 35.5309 3.67593 42.729 2.59333C48.7784 1.68151 54.8691 3.79439 59.0701 8.24328C59.3566 11.9346 60.8414 15.4882 63.2821 18.276C65.7723 21.1244 69.1882 23.0995 72.8988 23.8405C72.9787 23.8571 73.0558 23.8626 73.133 23.8626C73.6894 23.8626 74.1853 23.4714 74.301 22.9039C74.4305 22.2593 74.0117 21.6312 73.3671 21.5018C70.1689 20.8627 67.2268 19.1603 65.0782 16.7058C62.9405 14.2624 61.6458 11.133 61.4309 7.89342C63.9983 5.02575 67.4637 3.13325 71.2735 2.56027C80.2677 1.20494 88.6917 7.39482 90.0883 16.3697V35.9448C88.6559 36.1927 87.1573 36.0522 85.7992 35.5261C84.2152 34.9118 82.8434 33.7851 81.9316 32.3527C81.579 31.799 80.8435 31.6337 80.287 31.9863C79.7333 32.3389 79.568 33.0744 79.9206 33.6308C81.1024 35.4903 82.8847 36.9503 84.937 37.7492C86.138 38.2147 87.4245 38.4516 88.711 38.4516C89.171 38.4516 89.631 38.4213 90.0883 38.3607V56.0158C87.835 53.1343 84.6037 51.0049 81.0363 50.1813C76.1522 49.0546 70.7556 50.3851 66.9569 53.6632C66.4583 54.093 66.4032 54.845 66.8329 55.3436C67.2627 55.8395 68.0147 55.8946 68.5133 55.4676C71.7446 52.677 76.3395 51.5421 80.4991 52.5035C84.6588 53.4649 88.2867 56.5033 89.9671 60.4288C89.9974 60.5032 90.0443 60.5611 90.0883 60.6244V76.836H92.4684V16.2843L92.4546 16.108C90.901 5.78881 81.2346 -1.34318 70.9154 0.213242C66.7558 0.838565 62.946 2.82748 60.0535 5.85493C55.3567 1.35921 48.8418 -0.728875 42.3737 0.243544C34.5558 1.41981 28.0436 6.92376 25.5506 14.3781C24.7655 14.3973 23.9804 14.4634 23.2063 14.5819C18.2065 15.3339 13.7989 17.9895 10.7935 22.0527C7.78808 26.1187 6.54846 31.113 7.3005 36.1129C7.49333 37.3938 7.81563 38.6444 8.25639 39.84C8.2316 39.9171 8.21507 39.997 8.20405 40.0769C1.97285 45.8288 -0.980216 54.1811 0.289713 62.6243C1.0996 68.0016 3.62569 73.0014 7.44374 76.8387V76.8332Z" fill="#EF4B4A"/>
<path d="M184.074 93.1934V99.9314C184.074 120.226 167.563 136.737 147.269 136.737C126.974 136.737 110.463 120.226 110.463 99.9314V93.1934H108.083V99.9314C108.083 121.54 125.66 139.117 147.269 139.117C168.877 139.117 186.457 121.54 186.457 99.9314V93.1934H184.077H184.074Z" fill="#EF4B4A"/>
<path d="M79.7532 93.1934V99.5237C79.7532 120.035 63.0651 136.724 42.5534 136.724H41.7297C21.218 136.724 4.52988 120.035 4.52988 99.5237V93.1934H2.125V99.5237C2.125 121.363 19.893 139.131 41.7325 139.131H42.5561C64.3956 139.131 82.1636 121.363 82.1636 99.5237V93.1934H79.7587H79.7532Z" fill="#EF4B4A"/>
<path d="M23.0849 89.5897L18.209 98.2974H13.3331L8.45726 89.5897V103.176H2.1875V78.7939H8.80436L15.7711 91.6833L22.7378 78.7939H29.3546V103.176H23.0849V89.5897Z" fill="#EF4B4A"/>
<path d="M37.8894 103.176H31.0962L40.3273 78.7939H47.294L56.5251 103.176H49.7319L48.1645 98.8208H39.4568L37.8894 103.176ZM41.0242 94.2948H46.5971L43.8093 86.1077L41.0215 94.2948H41.0242Z" fill="#EF4B4A"/>
<path d="M64.5378 98.3002H77.2509V103.176H58.2681V78.7939H64.5378V98.3002Z" fill="#EF4B4A"/>
<path d="M93.2753 78.7939C95.8978 78.7939 97.8895 79.4744 99.2503 80.8324C100.608 82.1905 101.289 84.1822 101.289 86.8074V95.168C101.289 97.7933 100.608 99.7822 99.2503 101.143C97.8922 102.501 95.9005 103.182 93.2753 103.182H79.689V78.7995H93.2753V78.7939ZM95.0163 86.8047C95.0163 84.7139 93.9722 83.6698 91.8814 83.6698H85.9587V98.3002H91.8814C93.9722 98.3002 95.0163 97.2561 95.0163 95.1653V86.8047Z" fill="#EF4B4A"/>
<path d="M116.264 103.176H103.724V98.3002H106.859V83.6698H103.724V78.7939H116.264V83.6698H113.129V98.3002H116.264V103.176Z" fill="#EF4B4A"/>
<path d="M131.241 103.176H124.971V83.6698H117.655V78.7939H138.555V83.6698H131.241V103.176Z" fill="#EF4B4A"/>
<path d="M162.94 96.5567C162.94 98.9946 162.389 100.766 161.284 101.868C160.182 102.97 158.411 103.523 155.973 103.523H147.266C144.828 103.523 143.056 102.972 141.954 101.868C140.853 100.766 140.299 98.9946 140.299 96.5567V85.411C140.299 82.9731 140.85 81.2018 141.954 80.0999C143.056 78.998 144.828 78.4443 147.266 78.4443H155.973C158.411 78.4443 160.182 78.9953 161.284 80.0999C162.386 81.2018 162.94 82.9731 162.94 85.411V96.5567ZM156.67 85.411C156.67 84.0172 155.973 83.3202 154.579 83.3202H148.659C147.266 83.3202 146.569 84.0172 146.569 85.411V96.5567C146.569 97.9506 147.266 98.6475 148.659 98.6475H154.579C155.973 98.6475 156.67 97.9506 156.67 96.5567V85.411Z" fill="#EF4B4A"/>
<path d="M171.647 86.4556C171.647 87.8495 172.344 88.5465 173.738 88.5465H180.007C182.283 88.5465 183.955 89.0726 185.024 90.1222C186.09 91.1717 186.627 92.8191 186.627 95.0559V96.7693C186.627 99.0089 186.093 100.654 185.024 101.703C183.955 102.755 182.283 103.279 180.007 103.279H170.743C169.049 103.279 167.363 103.127 165.691 102.827V98.3671H178.614C179.148 98.3671 179.572 98.2211 179.886 97.9236C180.2 97.6288 180.357 97.2294 180.357 96.7253V93.7695H172.347C169.909 93.7695 168.137 93.2185 167.035 92.1139C165.934 91.012 165.38 89.2407 165.38 86.8027V85.7587C165.38 83.3208 165.931 81.5495 167.035 80.4476C168.137 79.3457 169.909 78.792 172.347 78.792H184.572V83.6679H173.738C172.344 83.6679 171.647 84.3648 171.647 85.7587V86.4556Z" fill="#EF4B4A"/>
<path d="M27.8664 156.568C26.6984 154.662 26.1557 153.034 26.1805 151.794C26.2053 150.549 26.8003 149.615 27.9298 148.982C29.7727 147.943 31.6183 146.905 33.4612 145.866C34.6733 145.186 35.767 145.122 36.7449 145.627C37.7256 146.131 38.6925 147.26 39.731 148.96C41.5133 151.874 43.4664 154.59 45.5683 157.108C44.8713 157.739 44.1771 158.367 43.4802 158.998C41.5353 156.673 39.7145 154.185 38.0286 151.535C37.3978 150.544 36.7642 150.249 36.0975 150.69C34.3235 151.869 32.5494 153.048 30.7754 154.227C30.5192 154.398 30.3952 154.657 30.4007 155.009C30.4063 155.365 30.544 155.756 30.814 156.183C31.0371 156.535 31.2988 156.94 31.5991 157.395C31.8993 157.849 32.2161 158.32 32.5467 158.802C32.88 159.285 33.2188 159.764 33.5659 160.246C33.913 160.728 34.2987 161.152 34.7229 161.524C35.508 162.563 36.3427 163.612 37.2242 164.662C36.5741 165.248 35.924 165.838 35.2766 166.425C34.2105 165.425 33.2326 164.334 32.3538 163.169C31.5935 162.16 30.8112 161.072 30.0096 159.893C29.2079 158.714 28.4972 157.601 27.8664 156.574V156.568Z" fill="#EF4B4A"/>
<path d="M46.9956 158.756C49.5217 161.59 52.2406 164.155 55.1165 166.45C56.5545 167.596 57.447 168.626 57.7776 169.637C58.1054 170.645 57.9071 171.742 57.1413 172.926C56.8134 173.433 56.4856 173.94 56.1551 174.45C55.549 175.386 54.8631 175.967 54.0807 176.182C53.3012 176.394 52.3645 176.243 51.293 175.703C51.4335 177.645 51.6456 179.595 51.9265 181.557C50.2407 180.438 48.5906 179.248 46.9818 177.989C46.8771 176.119 46.8331 174.259 46.8496 172.414C45.7835 171.496 44.7395 170.546 43.7175 169.563C42.7698 170.607 41.825 171.651 40.8773 172.695C39.4945 171.364 38.1502 169.976 36.8472 168.527C40.23 165.271 43.6128 162.015 46.9956 158.761V158.756ZM53.1221 170.006C53.6014 169.359 53.4086 168.703 52.5656 168.009C51.1552 166.849 49.7834 165.626 48.4528 164.337C47.5052 165.381 46.5603 166.425 45.6127 167.469C47.0204 168.827 48.4721 170.119 49.9652 171.345C50.8632 172.08 51.5602 172.105 52.0395 171.458C52.4004 170.973 52.7612 170.488 53.1221 170.003V170.006Z" fill="#EF4B4A"/>
<path d="M69.6473 190.363C64.3252 188.492 59.1683 186.057 54.2842 183.057C56.6918 179.022 59.0994 174.989 61.5071 170.953C65.5786 173.476 69.8787 175.526 74.3221 177.107C74.0108 177.991 73.6995 178.876 73.3882 179.757C70.2671 178.65 67.2149 177.322 64.2563 175.766C63.8431 176.573 63.4299 177.377 63.0194 178.184C65.4326 179.449 67.9063 180.573 70.4269 181.551C70.0908 182.427 69.7547 183.3 69.4159 184.176C66.8017 183.165 64.237 182.002 61.7357 180.694C61.2922 181.559 60.8487 182.427 60.4052 183.292C63.7026 185.016 67.1074 186.49 70.5839 187.713C70.2726 188.597 69.9613 189.481 69.6501 190.363H69.6473Z" fill="#EF4B4A"/>
<path d="M75.6093 192.203C73.7003 191.694 71.8078 191.112 69.9346 190.462C74.0198 186.922 77.7222 183.115 81.0168 179.104C82.6614 179.504 84.3198 179.846 85.9864 180.121C87.4051 185.088 89.2755 190.01 91.5895 194.826C89.6254 194.699 87.6668 194.501 85.7164 194.233C85.3858 193.349 85.0691 192.459 84.766 191.57C82.3446 191.195 79.937 190.71 77.5514 190.115C76.9151 190.818 76.2677 191.512 75.6093 192.2V192.203ZM79.4467 187.895C80.9287 188.239 82.4218 188.542 83.9203 188.798C83.4465 187.126 83.0195 185.451 82.6394 183.774C81.6174 185.165 80.554 186.54 79.4494 187.895H79.4467Z" fill="#EF4B4A"/>
<path d="M101.266 194.89C99.4531 194.983 97.635 195.016 95.8196 194.992C95.9161 191.275 96.0152 187.559 96.1117 183.843C94.2715 183.813 92.4313 183.711 90.5967 183.54C90.6903 182.615 90.784 181.686 90.8777 180.761C95.9188 181.235 101.007 181.157 106.034 180.529C106.139 181.449 106.241 182.367 106.345 183.287C104.516 183.518 102.682 183.678 100.842 183.769C100.982 187.477 101.12 191.185 101.26 194.892L101.266 194.89Z" fill="#EF4B4A"/>
<path d="M119.47 191.893C115.96 192.885 112.393 193.639 108.795 194.157C108.679 193.24 108.561 192.323 108.445 191.405C109.316 191.281 110.184 191.141 111.051 190.989C110.613 188.254 110.175 185.516 109.737 182.78C108.958 182.915 108.178 183.039 107.396 183.149C107.28 182.232 107.162 181.315 107.046 180.397C110.057 179.976 113.046 179.353 115.985 178.535C116.216 179.425 116.451 180.317 116.682 181.207C115.919 181.422 115.15 181.62 114.382 181.811C114.993 184.507 115.605 187.204 116.216 189.898C117.073 189.686 117.924 189.463 118.773 189.223C119.004 190.113 119.238 191.006 119.47 191.896V191.893Z" fill="#EF4B4A"/>
<path d="M128.913 184.091C129.188 180.463 129.268 176.865 129.155 173.322C130.637 172.546 132.097 171.711 133.527 170.818C133.871 175.959 133.791 181.237 133.268 186.586C131.433 187.493 129.568 188.327 127.681 189.088C123.574 185.804 119.827 182.217 116.472 178.394C118.062 177.937 119.637 177.424 121.194 176.851C123.601 179.386 126.177 181.807 128.913 184.091Z" fill="#EF4B4A"/>
<path d="M153.801 166.705C154.743 167.658 155.093 168.722 154.812 169.895C154.531 171.063 153.592 172.465 151.953 173.981C150 175.782 147.975 177.471 145.887 179.041C144.129 180.361 142.645 180.989 141.512 181.002C140.375 181.016 139.471 180.413 138.782 179.237C137.73 177.446 136.678 175.655 135.626 173.865C134.934 172.689 134.796 171.612 135.168 170.631C135.543 169.647 136.471 168.658 137.939 167.565C139.686 166.262 141.38 164.862 143.014 163.369C144.383 162.113 145.543 161.369 146.562 161.19C147.578 161.011 148.562 161.378 149.504 162.334C150.939 163.791 152.372 165.248 153.807 166.705H153.801ZM145.903 165.937C145.399 165.35 144.749 165.441 143.928 166.171C142.763 167.207 141.567 168.196 140.347 169.138C139.485 169.802 139.265 170.438 139.7 171.083C140.865 172.793 142.03 174.501 143.196 176.212C143.631 176.851 144.341 176.818 145.306 176.071C146.666 175.014 148 173.906 149.3 172.744C150.22 171.92 150.416 171.201 149.914 170.617C148.578 169.055 147.242 167.496 145.906 165.934L145.903 165.937Z" fill="#EF4B4A"/>
<path d="M154.562 157.171C155.146 157.659 155.802 157.43 156.504 156.452C157.557 154.984 158.565 153.461 159.526 151.885C160.573 150.169 161.532 149.004 162.479 148.433C163.424 147.863 164.421 147.852 165.471 148.447C165.738 148.599 166.005 148.75 166.275 148.902C167.325 149.497 167.865 150.4 167.856 151.623C167.848 152.844 167.294 154.463 166.14 156.372C165.785 156.956 165.405 157.565 164.997 158.202C164.587 158.838 164.168 159.474 163.733 160.113C163.297 160.75 162.857 161.381 162.408 162C161.959 162.62 161.526 163.201 161.11 163.744C160.132 165.019 159.069 166.196 157.928 167.262C157.339 166.697 156.747 166.135 156.157 165.57C157.16 164.411 158.11 163.245 159.006 162.08C159.771 161.083 160.545 160.028 161.319 158.91C162.094 157.791 162.73 156.813 163.245 155.998C163.512 155.574 163.658 155.185 163.68 154.844C163.702 154.502 163.598 154.254 163.372 154.103C162.928 153.805 162.485 153.507 162.041 153.207C160.774 155.306 159.427 157.317 158.008 159.235C156.711 160.987 155.488 161.992 154.43 162.314C153.369 162.637 152.358 162.309 151.394 161.381C151.256 161.248 151.119 161.116 150.981 160.984C150.017 160.053 149.615 159.044 149.736 157.965C149.857 156.879 150.521 155.612 151.683 154.05C153.626 151.439 155.419 148.637 157.044 145.646C157.796 146.097 158.548 146.549 159.303 147.004C157.81 149.758 156.182 152.359 154.427 154.802C153.752 155.742 153.692 156.441 154.276 156.932C154.372 157.012 154.471 157.094 154.568 157.174L154.562 157.171Z" fill="#EF4B4A"/>
</svg>
