<svg width="168" height="78" viewBox="0 0 168 78" fill="none" xmlns="http://www.w3.org/2000/svg">
<path d="M18.043 6.88164C-8.56469 23.2917 6.52624 71.8603 6.52624 73.0514C40.2822 50.4213 121.694 82.3152 148.963 67.6255C175.836 53.0681 160.877 5.55824 160.877 5.55824C119.179 26.6002 43.724 -8.9991 18.043 6.88164Z" fill="white"/>
<path d="M162.333 3.97018L150.684 0.132339H150.287L149.89 0C140.359 8.60207 123.018 9.3961 103.426 7.94037C94.8214 7.27867 85.8199 6.21996 76.8183 5.0289C70.4642 4.3672 63.9777 3.57317 57.6237 3.04381C57.3589 3.04381 56.9618 3.04381 56.5646 2.91147C55.9028 2.91147 55.1085 2.77913 54.4466 2.77913C47.2983 2.11743 40.5471 1.72041 34.3254 1.72041C16.8517 2.11743 3.74642 10.5872 0.569384 34.8053V35.3346C-1.81339 54.6562 4.01117 75.0365 4.67306 75.4335C4.80543 75.4335 4.80543 75.5658 4.93781 75.5658L14.6013 77.4186H14.7337C14.866 77.4186 14.9984 77.4186 15.1308 77.2863C28.3685 65.2434 59.3446 68.4195 89.1293 71.4633C104.485 73.1837 120.238 74.7718 133.211 74.2425C135.329 74.1101 137.314 73.9778 139.3 73.7131C155.847 71.1986 164.584 60.7438 166.57 41.4223C168.82 21.439 162.731 4.23486 162.333 3.97018ZM17.646 7.67569C43.327 -8.07271 118.914 27.1296 160.215 6.3523C160.215 6.3523 175.174 53.0681 148.302 67.3608C121.164 81.9181 39.6205 50.4213 5.86444 72.7867C6.1292 71.728 -8.82935 23.8211 17.646 7.67569Z" fill="black"/>
<path d="M40.4151 39.4373C42.5331 37.9816 43.7245 35.8641 43.7245 33.085C43.7245 27.5268 40.1503 24.6153 33.1344 24.6153H18.0435V57.1708H33.6639C38.9589 57.1708 45.1806 54.6563 45.1806 47.51C45.1806 43.5398 43.5921 40.893 40.4151 39.4373ZM32.7373 50.4215H26.1184V31.2323H31.8106C35.3848 31.2323 35.7819 32.688 35.7819 34.1437C35.7819 36.1288 34.5905 37.1875 32.3401 37.1875H30.3545L27.5746 43.1428H32.8696C35.7819 43.1428 36.9733 44.3339 36.9733 46.8483C37.2381 48.4364 36.5762 50.4215 32.7373 50.4215ZM47.1663 24.6153H55.3736V57.1708H47.1663V24.6153ZM74.9654 42.8781L70.8617 24.4829H58.0212V56.9061H66.0961V37.0552L70.8617 56.9061H79.069L83.8346 36.7905V56.9061H91.9096V24.4829H79.069L74.9654 42.8781ZM117.326 39.5696C119.444 38.1139 120.635 35.9965 120.635 33.2173C120.635 27.6591 117.061 24.7476 110.045 24.7476H94.9542V57.3031H110.575C115.87 57.3031 122.091 54.7887 122.091 47.6424C122.091 43.8045 120.371 41.0254 117.326 39.5696ZM109.648 50.5538H103.029V31.6293H108.721C112.296 31.6293 112.693 33.085 112.693 34.5407C112.693 36.5258 111.501 37.5846 109.251 37.5846H107.398L104.353 43.5398H109.648C112.56 43.5398 113.752 44.7309 113.752 47.2453C114.016 48.7011 113.487 50.5538 109.648 50.5538ZM139.433 24.2183C130.431 24.2183 123.15 31.4969 123.15 40.496C123.15 49.4951 130.431 56.7738 139.433 56.7738C148.434 56.7738 155.715 49.4951 155.715 40.496C155.847 31.6293 148.567 24.2183 139.433 24.2183ZM139.433 49.0981C134.8 49.0981 130.828 45.2602 130.828 40.496C130.828 35.7318 134.667 31.894 139.433 31.894C144.198 31.894 147.905 35.7318 147.905 40.496C148.037 45.3926 144.066 49.0981 139.433 49.0981Z" fill="black"/>
<path d="M28.7659 20.38C28.104 20.7771 27.3097 21.0417 26.5154 21.1741C25.7212 21.3064 24.9269 21.4388 24.1327 21.4388C23.3384 21.4388 22.5442 21.3064 21.7499 21.0417C21.088 20.7771 20.4261 20.38 19.8966 19.983C19.3671 19.4537 18.97 18.9243 18.7052 18.2626C18.4405 17.6009 18.3081 16.8069 18.3081 16.0128C18.3081 15.2188 18.4405 14.4248 18.7052 13.7631C18.97 13.1014 19.3671 12.572 19.8966 12.0426C20.4261 11.5133 21.088 11.2486 21.7499 10.9839C22.6765 10.7193 23.4708 10.5869 24.265 10.5869C25.1917 10.5869 25.9859 10.7193 26.6478 10.8516C27.3097 11.1163 27.9716 11.381 28.5011 11.9103L26.9126 13.6307C26.6478 13.366 26.2507 13.1014 25.8536 12.969C25.4564 12.8367 24.9269 12.7043 24.265 12.7043C23.7355 12.7043 23.3384 12.8367 22.9413 12.969C22.5442 13.1014 22.147 13.366 21.8823 13.6307C21.6175 13.8954 21.3528 14.2924 21.2204 14.6894C21.088 15.0865 20.9556 15.4835 20.9556 16.0128C20.9556 16.5422 21.088 16.9392 21.2204 17.3362C21.3528 17.7332 21.6175 18.1303 21.8823 18.3949C22.147 18.6596 22.5442 18.9243 22.9413 19.0566C23.3384 19.189 23.8679 19.3213 24.265 19.3213C24.7946 19.3213 25.1917 19.3213 25.5888 19.189C25.9859 19.0566 26.2507 18.9243 26.5154 18.792V17.0715H24.5298V14.9541H28.7659V20.38ZM30.222 10.8516H34.458C34.9875 10.8516 35.5171 10.8516 36.0466 10.9839C36.5761 11.1163 36.9732 11.2486 37.3703 11.5133C37.7675 11.778 38.0322 12.0426 38.297 12.4397C38.5617 12.8367 38.5617 13.366 38.5617 13.8954C38.5617 14.5571 38.4293 15.2188 38.0322 15.7482C37.6351 16.2775 37.1056 16.5422 36.3113 16.6745L39.0912 21.0417H36.1789L33.9285 16.9392H32.7371V21.0417H30.3544V10.8516H30.222ZM32.6048 15.0865H34.7228C34.7228 15.0865 35.1199 15.0865 35.3847 14.9541C35.5171 14.8218 35.7818 14.8218 35.9142 14.5571C36.0466 14.4248 36.0466 14.1601 36.0466 13.8954C36.0466 13.6307 36.0466 13.366 35.9142 13.2337L35.517 12.8367C35.3847 12.7043 35.1199 12.7043 34.9875 12.7043H32.7371V15.0865H32.6048ZM48.6223 17.2039C48.6223 17.8656 48.49 18.3949 48.3576 18.9243C48.2252 19.4537 47.8281 19.8507 47.5633 20.2477C47.1662 20.6447 46.7691 20.9094 46.1072 21.1741C45.4453 21.3064 44.7834 21.4388 44.1215 21.4388C43.3273 21.4388 42.6654 21.3064 42.1359 21.1741C41.6064 20.9094 41.0769 20.6447 40.6797 20.2477C40.2826 19.8507 40.0179 19.4537 39.8855 18.9243C39.7531 18.3949 39.6207 17.8656 39.6207 17.2039V10.8516H42.0035V17.0715C42.0035 17.3362 42.0035 17.7332 42.1359 17.9979C42.2683 18.2626 42.4006 18.5273 42.533 18.6596C42.6654 18.792 42.9301 19.0566 43.1949 19.0566C43.4596 19.189 43.7244 19.189 44.1215 19.189C44.3863 19.189 44.7834 19.189 45.0482 19.0566C45.3129 18.9243 45.5777 18.792 45.71 18.6596C45.8424 18.3949 46.1072 18.2626 46.1072 17.9979C46.2395 17.7332 46.2396 17.4686 46.2396 17.0715V10.8516H48.6223V17.2039ZM50.2108 10.8516H54.1821C54.7116 10.8516 55.2411 10.8516 55.7707 10.9839C56.3002 11.1163 56.6973 11.2486 57.0944 11.5133C57.4916 11.778 57.7563 12.0426 58.0211 12.4397C58.2858 12.8367 58.2858 13.366 58.2858 13.8954C58.2858 14.5571 58.1534 14.9541 58.0211 15.3511C57.7563 15.7482 57.4916 16.1452 57.2268 16.2775C56.8297 16.5422 56.4325 16.6745 55.903 16.8069C55.3735 16.9392 54.844 16.9392 54.3145 16.9392H52.5936V20.9094H50.2108V10.8516ZM52.5936 15.2188H54.844C54.9764 15.2188 55.2411 15.0865 55.3735 15.0865L55.7707 14.6894C55.903 14.5571 55.903 14.2924 55.903 14.0277C55.903 13.7631 55.903 13.4984 55.7707 13.366C55.6383 13.2337 55.5059 13.1014 55.2412 12.969C54.9764 12.8367 54.844 12.8367 54.5793 12.8367H52.726L52.5936 15.2188ZM59.2124 16.0128C59.2124 15.2188 59.3448 14.4248 59.6096 13.7631C59.8743 13.1014 60.2715 12.572 60.801 12.0426C61.3305 11.5133 61.9924 11.2486 62.6542 10.9839C63.3161 10.7193 64.1104 10.5869 65.037 10.5869C65.8313 10.5869 66.6255 10.7193 67.4198 10.9839C68.0817 11.2486 68.7436 11.6456 69.2731 12.0426C69.8026 12.572 70.1997 13.1014 70.4645 13.7631C70.7292 14.4248 70.8616 15.2188 70.8616 16.0128C70.8616 16.8069 70.7292 17.6009 70.4645 18.2626C70.1997 18.9243 69.8026 19.4537 69.2731 19.983C68.7436 20.5124 68.0817 20.7771 67.4198 21.0417C66.7579 21.3064 65.9636 21.4388 65.037 21.4388C64.2428 21.4388 63.4485 21.3064 62.6542 21.0417C61.9924 20.7771 61.3305 20.38 60.801 19.983C60.2715 19.4537 59.8743 18.9243 59.6096 18.2626C59.3448 17.6009 59.2124 16.8069 59.2124 16.0128ZM61.7276 16.0128C61.7276 16.5422 61.86 16.9392 61.9924 17.3362C62.1247 17.7332 62.3895 18.1303 62.6542 18.3949C62.919 18.6596 63.3161 18.9243 63.7132 19.0566C64.1104 19.189 64.6399 19.3213 65.037 19.3213C65.5665 19.3213 65.9636 19.189 66.3608 19.0566C66.7579 18.9243 67.155 18.6596 67.4198 18.3949C67.6845 18.1303 67.9493 17.7332 68.0817 17.3362C68.2141 16.9392 68.3464 16.5422 68.3464 16.0128C68.3464 15.4835 68.2141 15.0865 68.0817 14.6894C67.9493 14.2924 67.6845 13.8954 67.4198 13.6307C67.155 13.366 66.7579 13.1014 66.3608 12.969C65.9636 12.8367 65.4341 12.7043 65.037 12.7043C64.5075 12.7043 64.1104 12.8367 63.7132 12.969C63.3161 13.1014 62.919 13.366 62.6542 13.6307C62.3895 13.8954 62.1247 14.2924 61.9924 14.6894C61.7276 15.0865 61.7276 15.4835 61.7276 16.0128ZM159.554 73.0512C159.554 72.5218 159.686 72.1248 159.819 71.7278C159.951 71.3307 160.216 70.9337 160.613 70.669C160.878 70.4044 161.275 70.1397 161.672 69.875C162.069 69.7427 162.598 69.6103 162.996 69.6103C163.525 69.6103 163.922 69.7427 164.319 69.875C164.717 70.0073 165.114 70.272 165.378 70.5367C165.643 70.8014 165.908 71.1984 166.173 71.5954C166.305 71.9924 166.437 72.5218 166.437 72.9188C166.437 73.4482 166.305 73.8452 166.173 74.2422C166.04 74.6392 165.776 75.0362 165.378 75.3009C165.114 75.5656 164.717 75.8303 164.319 76.095C163.922 76.2273 163.393 76.3596 162.996 76.3596C162.466 76.3596 162.069 76.2273 161.672 76.095C161.275 75.9626 160.878 75.6979 160.613 75.4333C160.348 75.1686 160.083 74.7716 159.819 74.3745C159.686 73.9775 159.554 73.5805 159.554 73.0512ZM160.216 73.0512C160.216 73.4482 160.348 73.8452 160.48 74.2422C160.613 74.6392 160.878 74.9039 161.142 75.1686C161.407 75.4333 161.672 75.6979 162.069 75.8303C162.466 75.9626 162.863 76.095 163.26 76.095C163.658 76.095 164.055 75.9626 164.452 75.8303C164.849 75.6979 165.114 75.4333 165.378 75.1686C165.643 74.9039 165.908 74.6392 166.04 74.2422C166.173 73.8452 166.305 73.4482 166.305 73.0512C166.305 72.6541 166.173 72.2571 166.04 71.8601C165.908 71.4631 165.643 71.1984 165.378 70.9337C165.114 70.669 164.849 70.4044 164.452 70.272C164.055 70.1397 163.658 70.0073 163.26 70.0073C162.863 70.0073 162.466 70.1397 162.069 70.272C161.672 70.4044 161.407 70.669 161.142 70.9337C160.878 71.1984 160.613 71.4631 160.48 71.8601C160.216 72.2571 160.216 72.6541 160.216 73.0512ZM161.804 71.0661H163.26C163.79 71.0661 164.055 71.1984 164.319 71.3307C164.584 71.4631 164.717 71.8601 164.717 72.2571C164.717 72.6541 164.584 72.9188 164.452 73.0512C164.187 73.1835 164.055 73.3158 163.658 73.3158L164.849 75.0362H164.187L163.128 73.3158H162.466V75.0362H161.937V71.0661H161.804ZM162.334 72.9188H163.393C163.525 72.9188 163.658 72.9188 163.79 72.7865C163.922 72.7865 163.922 72.6541 164.055 72.6541C164.055 72.5218 164.187 72.3895 164.187 72.2571C164.187 72.1248 164.187 71.9924 164.055 71.8601C164.055 71.7278 163.922 71.7278 163.79 71.7278C163.658 71.7278 163.658 71.5954 163.525 71.5954H162.334V72.9188Z" fill="black"/>
</svg>
