<svg width="130" height="100" viewBox="0 0 130 100" fill="none" xmlns="http://www.w3.org/2000/svg">
<path d="M61.0122 99.1672C67.3308 99.285 73.6494 99.0495 79.968 98.3823C95.2347 96.8125 109.834 93.0056 123.531 85.7058C124.865 84.9994 125.533 84.0968 125.925 82.6054C127.691 75.5019 128.712 68.3199 129.379 61.0594C130.674 46.1459 129.339 31.5072 125.847 17.0254C125.533 15.6518 124.865 14.8669 123.688 14.2389C113.013 8.46977 101.632 4.93763 89.7795 2.89684C75.7294 0.502835 61.6009 0.149621 47.3938 1.91569C32.9906 3.68176 19.2152 7.44937 6.34254 14.3959C5.04742 15.1023 4.45873 16.005 4.10551 17.3786C2.45718 24.3644 1.31905 31.3894 0.691115 38.5322C-0.604003 53.5634 0.612623 68.3591 4.22325 82.9979C4.57647 84.3715 5.16516 85.1564 6.38178 85.7843C16.7035 91.2788 27.6139 94.9287 39.0737 96.9302C46.3342 98.2253 53.6339 99.0102 61.0122 99.1672Z" fill="black"/>
<path d="M60.6984 96.4598C66.703 96.5775 72.7077 96.3421 78.7123 95.7534C93.1941 94.3013 107.087 90.7299 120.078 83.9403C121.333 83.2731 122.001 82.449 122.354 81.0361C124.002 74.4428 125.023 67.7317 125.611 60.9814C126.867 47.1276 125.572 33.47 122.236 19.9694C121.922 18.7135 121.294 17.9678 120.156 17.3399C110.031 11.9632 99.1987 8.66655 87.9351 6.78274C74.5915 4.54572 61.1694 4.23175 47.708 5.84084C34.0504 7.48917 20.9422 10.9821 8.73673 17.4576C7.5201 18.0856 6.93142 18.949 6.61745 20.2441C5.04761 26.7197 3.98797 33.2738 3.39928 39.9456C2.14341 53.9564 3.32078 67.7317 6.77443 81.3501C7.0884 82.606 7.67709 83.3516 8.81522 83.9403C18.6267 89.0423 28.9877 92.4567 39.898 94.3405C46.7268 95.5571 53.6734 96.3028 60.6984 96.4598Z" fill="black"/>
<path d="M60.699 96.4599C53.7132 96.3029 46.7667 95.5573 39.8594 94.3799C28.9882 92.4961 18.588 89.0817 8.77655 83.9797C7.63842 83.391 7.04973 82.6454 6.73576 81.3895C3.32136 67.7711 2.14398 53.9958 3.36061 39.985C3.9493 33.3132 5.04819 26.7983 6.57878 20.2835C6.89275 18.9884 7.48144 18.125 8.69806 17.497C20.9428 11.0214 34.0117 7.52856 47.6693 5.88023C61.1307 4.27114 74.5528 4.54586 87.8964 6.82213C99.16 8.70594 109.992 12.0026 120.117 17.3793C121.256 17.968 121.883 18.7137 122.197 20.0088C125.533 33.5094 126.789 47.1277 125.573 61.0208C124.984 67.8104 123.964 74.4822 122.315 81.0755C121.962 82.4884 121.334 83.3125 120.039 83.9797C107.048 90.7693 93.1947 94.3014 78.6736 95.7928C72.7083 96.3422 66.7036 96.5777 60.699 96.4599ZM36.9944 36.6098C37.8578 36.4921 38.6427 36.6491 39.4277 36.963C40.5658 37.434 40.762 38.8468 41.8609 39.357C41.7432 42.2612 42.3319 45.2047 40.9975 47.9912C42.9206 48.3444 44.4511 48.3444 45.9817 47.9127C45.5108 46.853 44.9613 45.7934 45.3146 44.5768C46.0995 44.8515 46.6097 45.5187 46.9236 46.1858C48.4542 49.3648 50.2203 52.4259 51.3977 55.7619C50.9267 56.1151 50.4165 56.429 49.9456 56.7823C43.8625 61.2171 44.8829 71.421 51.6724 74.6392C55.5578 76.4837 59.3646 76.3267 63.2107 74.6784C68.3127 77.6611 73.7679 80.0159 78.3989 83.7835C79.7333 84.8824 81.4601 85.1963 83.1084 85.5496C84.1681 85.785 85.11 85.4318 85.6594 84.5292C87.19 82.0174 89.584 79.5842 86.9938 76.366C86.8368 76.209 86.9153 75.8558 86.8368 75.6203C87.9357 75.5811 89.0346 75.5418 90.0942 75.5026C90.2512 75.0709 89.9372 74.8746 89.8195 74.5999C88.9561 72.0489 90.4867 69.7334 93.0769 69.7334C97.1193 69.7334 97.1193 69.7334 98.6498 73.8543C98.8853 74.4822 98.8461 75.4241 99.788 75.4633C101.829 75.5418 103.87 75.5811 106.224 75.6203C104.851 73.6188 104.066 71.9312 103.438 70.1259C101.868 65.5734 100.298 61.0208 98.6498 56.4683C98.4536 55.9188 98.4929 55.0554 97.5902 55.0162C95.3532 54.9769 93.1162 54.7022 90.9576 55.0947C91.9388 58.5876 89.8195 61.2563 88.9953 64.1605C87.4647 63.1794 86.3266 62.002 87.1115 60.0004C87.2685 59.5295 87.1115 59.0978 86.7976 58.7446C85.2277 56.9392 84.1288 54.3883 80.9892 55.0162C80.7929 55.0554 80.5182 54.8592 80.2435 54.7807C80.2042 54.506 80.1257 54.2313 80.1257 53.9958C80.322 50.6206 80.322 50.6599 77.1038 51.5233C75.4162 51.955 73.7286 52.269 72.9437 50.0319C72.7083 49.3648 72.0411 49.1293 71.4131 48.8546C72.826 48.7761 74.2781 48.6976 75.6909 48.6191C79.1053 48.4621 79.851 47.7164 80.008 44.1058C76.4759 45.6756 72.9437 46.5783 69.9218 43.3209C67.724 40.9269 67.4493 36.2566 69.2939 33.5879C72.1588 29.4278 76.0049 30.2912 80.322 32.018C79.7725 30.3697 79.3408 29.1138 78.9091 27.858C79.4586 27.701 80.008 27.544 80.5574 27.3085C81.2246 27.073 81.8918 26.6413 81.4601 25.8957C80.7144 24.5613 81.3424 23.6587 82.1273 22.756C82.7945 21.9711 83.0299 21.0292 81.7741 20.8329C79.1838 20.4405 76.7898 19.1061 73.9641 20.1658C70.9422 21.2646 70.8637 20.9899 68.8622 18.3604C67.6455 16.7514 66.4289 15.1423 65.173 13.5724C62.936 10.7467 62.0726 10.8645 60.4243 14.1611C60.2673 14.5143 60.1888 14.9068 60.071 15.26C59.2861 17.8502 58.1088 19.9695 55.1261 20.6367C51.3192 21.5001 48.4542 23.6979 46.8451 27.3478C46.7667 27.5048 46.6097 27.6225 46.4527 27.7795C44.4511 27.8972 42.4496 27.387 40.4873 28.0542C39.0744 27.701 38.996 26.1311 37.9756 25.4247C35.3461 24.6398 32.7166 25.464 30.0086 25.15C30.4011 26.3274 31.0683 27.387 30.9898 28.3682C30.5581 35.0007 31.9709 41.6726 30.3618 48.2659C32.8343 48.3051 35.3461 48.3836 37.8578 48.4229C36.2487 44.4983 36.9944 40.4952 36.9944 36.6098ZM6.50029 65.1024C6.93199 67.8889 7.32445 70.4398 7.75616 73.0301C8.46259 77.4256 8.46259 77.4256 12.7796 76.366C13.6823 76.1305 14.585 75.6596 15.7623 76.6407C13.2506 77.2687 11.0136 77.8181 9.05128 78.3283C8.22711 80.7223 9.56147 81.5857 11.2491 82.2921C14.1925 83.5088 17.0967 84.8431 20.0402 86.099C20.7073 86.3737 21.4138 86.8054 22.2772 86.3345C20.7466 84.2937 19.2945 82.3706 18.3918 80.1336C17.9994 79.1525 17.2929 79.1917 16.351 79.6627C16.7042 80.5653 17.0182 81.468 17.4892 82.6453C15.1736 82.0959 13.2898 81.1933 11.2883 79.8589C13.5646 79.2702 15.5661 78.76 17.4892 78.2498C17.6069 77.4256 17.4892 76.7977 17.3322 76.1698C16.7042 73.658 16.7435 73.6973 14.271 74.1682C12.8974 74.4037 11.5238 75.0316 9.87544 74.7569C9.44374 72.0882 9.05128 69.4195 8.61957 66.7507C9.48298 66.6722 10.0717 66.319 10.7781 66.947C10.7389 69.0662 10.6604 71.3425 10.6211 73.7758C12.4264 73.4618 14.0355 73.1871 15.6054 72.9123C16.3118 72.7946 16.5865 72.2844 16.4295 71.6172C15.7231 68.2421 15.2914 64.8277 14.9382 61.3348C12.6227 60.9816 10.4249 61.7665 8.07013 61.4525C7.59918 58.7446 7.55993 56.0758 7.55993 53.4071C8.38409 53.2109 8.93354 53.0931 9.48298 53.6426C9.28675 55.8404 9.09052 58.0774 8.89429 60.4714C10.4249 60.4321 11.7592 60.3144 13.0151 60.3536C14.3495 60.3929 14.9382 59.8434 14.7419 58.4698C14.3887 55.6834 14.428 52.8577 14.5065 50.0319C14.5457 48.6976 13.9963 48.3836 12.7796 48.4229C11.0921 48.4621 9.40449 48.6191 7.55993 48.1481C7.63842 45.4009 7.52068 42.693 7.91314 39.9457C8.73731 39.9457 9.36524 39.7103 9.95393 40.2597C9.71846 41.3978 9.44374 42.536 9.20826 43.7133C9.01203 44.8515 8.42334 45.9111 8.77655 47.0885C13.8 48.3444 14.5065 47.8734 14.7027 43.0462C14.7419 42.536 14.7812 41.9865 14.7812 41.4763C14.7419 39.5925 15.5661 37.7872 15.0952 35.7857C13.2113 35.5502 11.406 35.2755 9.60072 35.1577C8.38409 35.0792 8.10937 34.4513 8.34485 33.5094C8.73731 31.7433 9.05128 30.0165 9.28675 28.2504C9.40449 26.9946 10.1894 26.0134 11.7592 27.1123C11.3668 29.4278 9.99318 31.5078 9.91469 33.9411C11.9162 34.4905 13.7608 34.6868 15.5661 34.569C16.2725 30.6837 16.9397 27.0731 17.6069 23.5017C15.6838 22.4028 13.2898 23.1092 11.6808 21.1469C13.6431 20.362 15.3306 19.3416 17.3714 18.8706C17.3714 20.1265 15.9586 20.5975 16.2333 21.7748C16.7435 22.0103 17.2929 22.2066 18.0386 22.0888C18.745 19.4201 21.1783 17.6148 22.2772 14.6321C18.1171 15.5347 14.9382 17.811 11.406 19.1454C9.36524 19.9303 8.8158 21.2646 9.12977 23.2269C10.8958 23.6194 12.5442 24.2081 14.271 24.3258C15.1344 24.3651 15.5269 24.7968 15.3699 25.7387C14.9382 27.9757 14.5457 30.2127 14.1533 32.4498C13.4076 32.6067 12.7012 32.7245 12.2694 32.1358C11.877 31.5471 12.3479 31.0369 12.6227 30.4482C13.2113 28.9569 13.9963 27.387 13.6038 25.6602C12.191 24.993 10.6996 25.0715 9.326 24.6398C8.61957 24.4043 8.26636 24.679 8.14862 25.2677C7.59917 28.9961 6.81426 32.6852 6.61803 36.5313C8.89429 36.8453 11.0528 37.1593 13.3683 37.5125C13.1329 40.2205 12.9366 42.8107 12.7404 45.3224C11.9555 45.4402 11.3668 45.5972 10.7781 45.1262C11.2098 42.9677 11.6808 40.7699 12.1517 38.4936C10.1894 37.9834 8.34485 37.6695 6.4218 37.9834C5.75461 41.6333 5.87235 45.2439 5.67612 48.8153C5.59763 49.875 6.14707 50.1497 7.08898 50.1497C8.89429 50.1889 10.7389 49.9927 12.6619 50.3459C12.7404 52.5829 12.7796 54.7022 12.8974 56.8607C12.9759 58.4306 12.2694 58.5876 10.9743 58.1166C10.8173 55.8404 11.7592 53.6818 11.3668 51.3271C9.79695 51.2878 8.3056 51.2486 6.8535 51.2093C6.10783 51.2093 5.75461 51.6018 5.75461 52.3082C5.87235 56.0758 5.71537 59.8434 6.57878 63.6895C8.8158 63.4933 10.9351 63.1793 13.0151 63.6111C13.8785 65.6911 13.4468 67.9674 14.1533 70.0081C14.3102 70.4791 14.271 71.1463 13.6038 71.3033C12.8581 71.4603 12.6619 70.9893 12.5049 70.3221C12.3479 69.6942 12.2302 69.0662 12.191 68.3991C12.191 67.0647 12.4657 65.6911 12.1125 64.2782C10.2679 64.3567 8.46259 64.553 6.50029 65.1024ZM120.981 61.2563C118.979 61.217 117.292 61.2563 115.604 61.0993C114.505 61.0208 113.877 61.2563 113.76 62.4337C113.406 65.7303 112.975 69.027 112.543 72.5984C114.387 72.7946 116.154 73.4618 118.155 73.3833C118.665 71.0678 118.037 68.7523 118.391 66.5545C119.019 66.2798 119.568 66.2798 120.157 66.6722C120.353 69.2232 119.411 71.6565 119.136 74.1682C119.019 75.1494 118.077 75.1886 117.449 74.9139C116.389 74.4429 115.172 74.7177 114.113 74.0112C113.524 73.6188 112.386 73.2263 112.033 74.4822C111.68 75.6596 111.169 76.7977 111.483 78.1321C113.446 78.6423 115.408 79.1525 117.37 79.6234C117.37 79.7804 117.37 79.9374 117.37 80.0944C115.251 80.4868 113.563 81.8997 111.444 82.6061C111.483 81.311 112.621 80.6046 112.307 79.4664C111.405 78.917 110.816 79.1525 110.463 80.0944C110.227 80.6831 109.953 81.311 109.599 81.8604C108.697 83.3125 107.755 84.7254 106.735 86.2952C107.205 86.3737 107.402 86.4915 107.559 86.413C111.444 85.0001 115.172 83.3518 118.862 81.468C120 80.8793 119.96 79.7019 119.882 78.7208C119.803 77.7004 118.744 77.8966 118.037 77.7396C117.527 77.6219 116.86 77.8573 116.546 77.7396C115.486 77.3079 113.799 77.7396 113.21 75.8166C115.8 76.1305 117.959 76.8762 120.314 76.7192C121.452 72.9516 122.001 68.9878 122.276 64.9847C120.353 64.1605 118.43 64.5922 116.507 64.239C116.311 66.633 116.938 68.9878 116.428 71.264C114.858 71.421 114.505 70.6753 114.701 69.3802C114.976 67.7711 115.565 66.1228 115.408 64.5922C115.251 63.1793 115.8 63.2186 116.742 63.2186C118.665 63.2186 120.549 63.3363 122.59 63.6503C122.825 59.3725 123.453 55.4086 123.139 51.2878C121.177 51.0916 119.372 51.0523 117.488 51.2486C117.135 53.6426 118.234 55.9188 117.959 58.1951C117.213 58.4698 116.664 58.3128 116.154 57.9596C116.193 55.4086 116.271 52.8969 116.35 50.1889C118.273 50.1497 120.078 50.0712 121.883 50.0319C122.629 50.0319 123.218 49.875 123.179 49.0116C123.061 45.2439 123.179 41.4763 122.354 37.748C120.314 37.748 118.469 37.7872 116.625 38.3366C116.86 40.7307 118.037 42.8107 117.92 45.1262C117.292 45.3617 116.781 45.6364 116.114 45.1654C115.918 42.6145 115.722 40.0635 115.486 37.3555C117.802 37.0415 119.96 36.7668 122.158 36.4528C122.237 32.4105 120.549 28.8391 120.392 25.0715C120.353 24.3258 119.646 24.2473 119.019 24.4043C117.566 24.7183 116.114 25.0323 114.505 25.3855C115.133 27.7402 116.389 29.781 116.625 32.0573C115.997 32.489 115.486 32.646 114.78 32.2535C114.309 29.781 113.838 27.23 113.367 24.6398C115.604 23.8941 117.92 23.9334 119.803 22.8737C120.039 20.7544 119.058 19.6948 117.331 19.0276C114.858 18.0465 112.504 16.7906 110.031 15.8095C109.05 15.417 108.069 14.6321 106.538 14.9853C108.187 17.1831 109.599 19.2631 110.698 21.5394C111.209 22.5598 111.836 21.8926 112.504 21.5786C112.072 20.5975 111.68 19.6948 111.169 18.5567C113.485 19.3416 115.526 20.1658 117.566 21.5394C115.29 22.1281 113.328 22.6383 111.209 23.1877C111.915 27.0338 112.621 30.7229 113.328 34.4905C115.329 34.412 117.174 34.2943 119.019 33.7449C118.705 31.2724 117.488 29.1923 117.056 26.9553C118.391 26.2881 119.097 26.5236 119.254 27.9757C119.489 29.8595 119.843 31.7041 120.157 33.5879C120.314 34.4513 119.96 34.9222 119.019 35.0007C117.606 35.1185 116.193 35.3932 114.741 35.5502C113.799 35.6679 113.289 36.1389 113.406 37.0808C113.76 40.3774 114.113 43.6741 114.466 47.0493C116.35 47.7557 118.234 47.01 120.274 47.0885C119.803 44.6945 119.332 42.4182 118.862 40.1027C120.196 39.4355 120.902 39.7103 120.981 41.2016C121.099 43.3994 121.216 45.6364 121.334 47.8734C119.411 48.7761 117.527 48.4229 115.683 48.2266C114.858 48.1481 114.387 48.2659 114.348 49.0508C114.231 52.6614 114.152 56.3113 114.074 60.1182C116.154 59.8827 117.92 60.7461 119.882 60.2751C119.686 57.9204 119.489 55.6049 119.293 53.3286C120.078 53.0146 120.588 52.8969 121.099 53.3286C121.099 55.9581 121.059 58.5483 120.981 61.2563ZM86.2481 48.3051C85.9342 47.6379 85.8164 47.4025 85.7379 47.167C84.9138 44.7337 86.4836 42.379 88.9953 42.3397C92.9984 42.2612 92.9984 42.2612 94.372 45.9896C94.529 46.4213 94.686 46.853 94.8037 47.2847C94.9215 47.7557 95.1962 48.1089 95.7456 48.1481C97.7864 48.1874 99.8272 48.2266 102.221 48.3051C101.397 47.01 100.691 46.1466 100.337 45.087C98.4536 39.7495 96.5306 34.412 94.6075 29.0746C94.372 28.4074 94.2935 27.6617 93.3124 27.6225C91.1539 27.5833 88.9561 27.544 86.2089 27.4655C87.661 28.9569 87.3862 30.095 86.9545 31.3509C85.8949 34.2943 84.8745 37.2378 83.8934 40.2205C83.0299 42.7714 82.1665 45.3617 81.2246 48.1874C82.245 48.2266 82.9515 48.2266 83.6971 48.2266C84.3643 48.2659 85.1492 48.2659 86.2481 48.3051ZM38.0148 52.3475C38.525 54.349 37.4654 55.6834 36.445 57.0177C35.2283 58.6268 33.9725 60.2359 32.6774 61.7665C31.5785 63.0616 31.8532 64.2782 32.7166 65.4556C34.2864 67.6141 35.9348 69.6942 37.5439 71.8527C38.4465 73.0693 39.4277 74.1682 40.7228 74.9924C42.8813 76.3268 44.8044 76.0128 46.5704 73.972C43.784 70.8716 41.5077 67.3394 38.996 64.0035C37.0729 61.4525 37.0729 61.4133 39.1137 58.8623C40.8013 56.743 42.4496 54.6237 44.3334 52.1905C41.9787 52.2297 40.0948 52.3082 38.0148 52.3475ZM24.9459 52.3475C26.2018 55.5264 26.1625 72.2844 24.9067 75.5026C26.5157 75.5418 28.0463 75.5026 29.5769 75.6203C31.186 75.7381 31.7747 75.2671 31.6962 73.5403C31.5785 70.2044 31.657 66.9077 31.6962 63.5718C31.7354 59.8042 31.8532 56.0758 31.9317 52.1512C29.2237 52.1905 27.1044 51.9942 24.9459 52.3475ZM96.8053 27.7795C97.6687 28.1719 98.8461 28.3682 99.0031 27.8187C99.1993 27.1515 100.023 26.4451 99.3563 25.621C98.6498 24.7575 97.7079 25.1892 96.8838 25.1108C96.8445 26.0134 96.8445 26.8376 96.8053 27.7795Z" fill="#D5D5D5"/>
<path d="M6.49904 65.1025C8.4221 64.553 10.2274 64.396 12.1112 64.3176C12.4644 65.7304 12.1897 67.104 12.1897 68.4384C12.1897 69.1056 12.3074 69.6942 12.5037 70.3614C12.6607 71.0286 12.8569 71.4996 13.6026 71.3426C14.2697 71.1856 14.309 70.5184 14.152 70.0475C13.4456 67.9674 13.8773 65.7304 13.0139 63.6504C10.9338 63.2187 8.81455 63.5326 6.57753 63.7289C5.71412 59.922 5.87111 56.1151 5.75337 52.3475C5.71412 51.6411 6.10658 51.2486 6.85226 51.2486C8.3436 51.2879 9.83495 51.3271 11.3655 51.3664C11.7972 53.7211 10.8553 55.8797 10.9731 58.1559C12.2682 58.6661 12.9746 58.5092 12.8961 56.9001C12.7784 54.7415 12.7392 52.6222 12.6607 50.3852C10.7376 49.9928 8.89305 50.189 7.08773 50.189C6.10658 50.189 5.59638 49.875 5.67488 48.8546C5.87111 45.2833 5.79262 41.6726 6.42055 38.0227C8.38285 37.7088 10.1882 38.0227 12.1505 38.5329C11.6795 40.8092 11.2086 43.007 10.7769 45.1655C11.3655 45.6757 11.9542 45.5187 12.7392 45.3617C12.9354 42.8108 13.1709 40.2598 13.3671 37.5518C11.0516 37.1986 8.89305 36.9239 6.61678 36.5706C6.81301 32.6853 7.55868 28.9962 8.14737 25.307C8.22587 24.7576 8.61832 24.4829 9.32475 24.6791C10.6984 25.1108 12.1897 25.0323 13.6026 25.6995C13.9558 27.4263 13.2101 28.9962 12.5037 30.4875C12.229 31.0762 11.758 31.5864 12.1505 32.1751C12.5822 32.7638 13.2886 32.646 14.0343 32.4891C14.4267 30.252 14.8192 28.015 15.2509 25.778C15.4471 24.8361 15.0154 24.4436 14.152 24.3651C12.3859 24.2474 10.7376 23.6587 9.01079 23.2663C8.69682 21.304 9.24626 19.9696 11.2871 19.1847C14.8192 17.8111 17.9981 15.574 22.1582 14.6714C21.0593 17.6148 18.6261 19.4202 17.9196 22.1281C17.1739 22.2459 16.6245 22.0496 16.1143 21.8142C15.8396 20.6368 17.2524 20.1658 17.2524 18.91C15.2116 19.3809 13.5633 20.4013 11.5618 21.1862C13.2101 23.1485 15.6041 22.4028 17.4879 23.541C16.8207 27.0731 16.1536 30.723 15.4471 34.6083C13.6418 34.7261 11.7972 34.5299 9.7957 33.9804C9.91344 31.5472 11.2478 29.4671 11.6403 27.1516C10.0704 26.0527 9.32475 27.0339 9.16777 28.2897C8.97154 30.0951 8.61833 31.8219 8.22587 33.5487C8.02964 34.4906 8.26511 35.1578 9.48174 35.197C11.2871 35.2755 13.0924 35.5895 14.9762 35.825C15.4471 37.8265 14.623 39.6318 14.6622 41.5156C14.6622 42.0258 14.623 42.5753 14.5837 43.0855C14.3875 47.9127 13.6811 48.3837 8.65757 47.1278C8.30436 45.9504 8.89305 44.8515 9.08928 43.7527C9.32475 42.6145 9.56023 41.4764 9.83495 40.299C9.24626 39.7888 8.61833 39.985 7.79416 39.985C7.4017 42.7323 7.51944 45.4402 7.44095 48.1875C9.28551 48.6192 10.9731 48.5014 12.6607 48.4622C13.8773 48.4229 14.466 48.7369 14.3875 50.0713C14.2697 52.897 14.2697 55.6834 14.623 58.5091C14.7799 59.8828 14.2305 60.393 12.8961 60.393C11.601 60.3537 10.3059 60.4714 8.77531 60.5107C8.97154 58.1167 9.16777 55.8797 9.364 53.6819C8.81456 53.1324 8.22587 53.2502 7.44095 53.4464C7.48019 56.1151 7.48019 58.7839 7.95114 61.4918C10.3059 61.8058 12.5037 61.0209 14.8192 61.3741C15.1724 64.867 15.6041 68.2814 16.3105 71.6566C16.4675 72.3237 16.1928 72.8339 15.4864 72.9517C13.9165 73.2264 12.3074 73.5011 10.5021 73.8151C10.5414 71.3426 10.6199 69.1056 10.6591 66.9863C9.91344 66.3583 9.364 66.7116 8.50059 66.7901C8.93229 69.498 9.32475 72.1275 9.75646 74.7962C11.444 75.0317 12.7784 74.443 14.152 74.2075C16.6245 73.7758 16.6245 73.7366 17.2132 76.2091C17.3702 76.837 17.5272 77.465 17.3702 78.2891C15.4471 78.7993 13.4848 79.3095 11.1693 79.8982C13.2101 81.2326 15.0547 82.1745 17.3702 82.6847C16.9385 81.5073 16.5853 80.6046 16.232 79.702C17.1347 79.231 17.8804 79.231 18.2728 80.1729C19.2147 82.41 20.6276 84.3722 22.1582 86.3738C21.2555 86.8447 20.5883 86.413 19.9212 86.1383C16.9777 84.8824 14.0735 83.5481 11.1301 82.3315C9.40325 81.625 8.10813 80.7616 8.93229 78.3676C10.9338 77.8574 13.1316 77.308 15.6434 76.68C14.466 75.6989 13.5241 76.2091 12.6607 76.4053C8.3436 77.465 8.3436 77.465 7.63718 73.0694C7.36245 70.4399 6.96999 67.8497 6.49904 65.1025Z" fill="black"/>
<path d="M120.981 61.2564C121.06 58.5485 121.099 55.9582 121.177 53.2895C120.706 52.8578 120.157 52.9755 119.372 53.2895C119.568 55.5265 119.765 57.842 119.961 60.236C117.959 60.6677 116.232 59.8436 114.152 60.079C114.231 56.2722 114.309 52.6223 114.427 49.0117C114.466 48.2268 114.937 48.109 115.761 48.1875C117.606 48.3837 119.49 48.737 121.413 47.8343C121.295 45.5973 121.177 43.3603 121.06 41.1625C120.981 39.6711 120.275 39.3964 118.94 40.0636C119.411 42.3791 119.843 44.6554 120.353 47.0494C118.312 47.0101 116.468 47.7166 114.545 47.0101C114.192 43.635 113.838 40.3383 113.485 37.0417C113.367 36.0605 113.878 35.5896 114.82 35.5111C116.232 35.3541 117.645 35.0794 119.097 34.9616C120.039 34.8831 120.393 34.4514 120.236 33.5488C119.922 31.665 119.568 29.8204 119.333 27.9366C119.137 26.4452 118.469 26.2098 117.135 26.9162C117.567 29.1532 118.783 31.2333 119.097 33.7058C117.253 34.2944 115.408 34.4122 113.407 34.4514C112.7 30.6838 111.994 26.9947 111.287 23.1486C113.367 22.5991 115.369 22.0889 117.645 21.5003C115.565 20.1266 113.564 19.3025 111.248 18.5176C111.758 19.6164 112.151 20.5584 112.583 21.5395C111.915 21.8535 111.287 22.5207 110.777 21.5003C109.639 19.224 108.266 17.144 106.617 14.9462C108.148 14.593 109.129 15.3386 110.11 15.7703C112.583 16.7515 114.937 18.0074 117.41 18.9885C119.137 19.6949 120.118 20.7153 119.882 22.8346C117.999 23.8943 115.683 23.855 113.446 24.6007C113.917 27.2302 114.388 29.7419 114.859 32.2144C115.565 32.6069 116.115 32.4499 116.703 32.0182C116.429 29.7419 115.212 27.7011 114.584 25.3464C116.193 24.9931 117.645 24.6399 119.097 24.3652C119.725 24.2475 120.432 24.2867 120.471 25.0324C120.628 28.8 122.355 32.3714 122.237 36.4137C120.039 36.7277 117.881 37.0024 115.565 37.3164C115.761 40.0244 115.997 42.5753 116.193 45.1263C116.86 45.5973 117.371 45.3226 117.999 45.0871C118.116 42.7716 116.939 40.6915 116.703 38.2975C118.548 37.7873 120.393 37.7088 122.433 37.7088C123.257 41.4372 123.14 45.2441 123.257 48.9724C123.297 49.8751 122.669 49.9928 121.962 49.9928C120.157 50.0321 118.352 50.0713 116.429 50.1498C116.35 52.8578 116.311 55.3695 116.232 57.9205C116.743 58.2737 117.292 58.4307 118.038 58.156C118.273 55.8797 117.174 53.6035 117.567 51.2095C119.411 51.0132 121.217 51.0525 123.218 51.2487C123.532 55.3303 122.904 59.3334 122.669 63.6112C120.667 63.2972 118.744 63.1402 116.821 63.1795C115.879 63.1795 115.33 63.1402 115.487 64.5531C115.644 66.1229 115.055 67.7713 114.78 69.3411C114.545 70.6362 114.937 71.3819 116.507 71.2249C117.017 68.9486 116.389 66.5939 116.586 64.1999C118.509 64.5138 120.432 64.1214 122.355 64.9456C122.041 68.9486 121.531 72.9125 120.393 76.6801C118.038 76.8371 115.918 76.0914 113.289 75.7774C113.878 77.7005 115.565 77.2688 116.625 77.7005C116.978 77.8575 117.645 77.5828 118.116 77.7005C118.823 77.8575 119.882 77.6613 119.961 78.6816C120.039 79.6628 120.079 80.8794 118.94 81.4289C115.291 83.3127 111.523 84.961 107.638 86.3739C107.481 86.4131 107.284 86.3346 106.813 86.2561C107.834 84.6863 108.776 83.2734 109.678 81.8213C110.032 81.2719 110.306 80.6832 110.542 80.0553C110.934 79.1133 111.484 78.8779 112.386 79.4273C112.7 80.5655 111.562 81.2719 111.523 82.567C113.642 81.8606 115.33 80.4477 117.449 80.0553C117.449 79.8983 117.449 79.7413 117.449 79.5843C115.487 79.0741 113.524 78.5639 111.562 78.093C111.248 76.7586 111.798 75.5812 112.112 74.4431C112.465 73.1872 113.603 73.5797 114.192 73.9721C115.251 74.6786 116.468 74.4431 117.528 74.8748C118.156 75.1495 119.097 75.1495 119.215 74.1291C119.49 71.6174 120.432 69.1841 120.236 66.6331C119.647 66.2014 119.097 66.2407 118.469 66.5154C118.077 68.7132 118.705 71.0287 118.234 73.3442C116.232 73.4227 114.466 72.7555 112.622 72.5593C113.054 68.9879 113.485 65.6912 113.838 62.3946C113.956 61.1779 114.584 60.9425 115.683 61.0602C117.292 61.2564 118.98 61.2172 120.981 61.2564Z" fill="black"/>
<path d="M63.2879 74.6392C59.4418 76.2483 55.5957 76.4053 51.7496 74.5999C44.96 71.3818 43.9396 61.2171 50.0228 56.743C50.4937 56.3898 50.9647 56.0758 51.4749 55.7226C51.9066 55.5264 52.299 55.2909 52.7307 55.0947C53.6726 54.8985 54.6145 54.7022 55.5957 54.506C61.2864 53.3679 67.1733 56.6253 68.3899 61.8058C69.4888 66.4368 68.5469 70.5968 64.7792 73.815C64.269 74.0897 63.7589 74.3645 63.2879 74.6392ZM53.4372 60.0397C51.6711 62.9831 51.7888 66.0836 52.8485 69.184C53.8689 72.1274 56.4591 73.1478 59.4418 71.9312C59.952 71.7742 60.5014 71.6172 60.7369 71.0286C63.2487 68.3206 62.8562 65.1024 62.189 61.8842C61.4433 58.2344 57.9897 56.8215 54.693 58.7053C54.1436 58.98 53.6334 59.4117 53.4372 60.0397Z" fill="black"/>
<path d="M45.3946 44.5378C45.0414 45.7544 45.5908 46.8141 46.0618 47.8737C44.4919 48.3054 42.9613 48.3447 41.0775 47.9522C42.4119 45.1657 41.8232 42.2223 41.9409 39.3181C42.0194 38.4939 42.0979 37.6698 41.8232 36.8456C41.8624 34.1376 42.2941 31.4297 41.3915 28.8002C41.313 28.3685 41.0383 28.133 40.6851 27.9368C42.6474 27.2696 44.6489 27.7405 46.6504 27.662C46.9644 28.0545 47.2784 28.4077 47.5531 28.7609C50.3003 32.4108 53.0475 36.0607 55.7948 39.7106C55.9517 39.6321 56.1087 39.5536 56.2657 39.4751C55.8733 35.5505 57.2076 31.5866 55.3631 27.7013C57.1684 27.6228 58.8167 27.5443 60.5828 27.819C58.9737 30.527 59.6409 33.3135 59.5624 36.0214C59.4839 40.0245 59.3661 44.0669 59.2877 48.07C56.5797 48.6194 54.2642 48.4232 52.8121 45.5975C52.1449 44.2631 51.0852 43.125 50.1433 41.9868C48.5735 40.0638 47.3176 37.8267 45.2376 35.786C45.2376 38.2977 44.9629 40.4562 45.3946 42.5755C45.0021 43.1642 45.2768 43.8706 45.3946 44.5378Z" fill="black"/>
<path d="M89.1544 64.0819C89.9785 61.1385 92.0978 58.509 91.1167 55.0161C93.2752 54.6237 95.5122 54.8984 97.7492 54.9376C98.6519 54.9376 98.6126 55.8403 98.8089 56.3897C100.418 60.9423 102.027 65.4948 103.597 70.0473C104.225 71.8526 104.97 73.5402 106.383 75.5418C104.029 75.5025 101.988 75.4633 99.947 75.3848C99.0051 75.3455 99.0443 74.4429 98.8089 73.7757C97.2783 69.6549 97.2783 69.6549 93.2359 69.6549C90.6457 69.6549 89.0759 71.9704 89.9785 74.5214C90.057 74.7961 90.4102 75.0316 90.2532 75.424C89.1936 75.4633 88.0947 75.5025 86.9958 75.5418C86.5641 75.5025 86.1324 75.4633 85.74 75.4633C85.3475 74.7961 85.8185 74.2074 86.0147 73.6187C86.8781 70.9892 87.7415 68.3597 88.6049 65.7695C88.7619 65.2201 88.9581 64.6314 89.1544 64.0819ZM94.0209 60.589C93.1967 62.5513 92.4903 64.1997 92.2155 66.0835C93.5107 66.3582 94.6488 66.3582 96.1401 66.005C95.159 64.3567 94.8843 62.5513 94.0209 60.589Z" fill="black"/>
<path d="M86.2477 48.3049C85.1488 48.2657 84.4032 48.2657 83.6182 48.2265C82.9118 48.2265 82.2054 48.1872 81.1458 48.1872C82.0877 45.3615 82.9511 42.7713 83.8145 40.2203C84.8349 37.2768 85.816 34.2941 86.8757 31.3507C87.3074 30.1341 87.5821 28.9959 86.13 27.4653C88.9165 27.5438 91.075 27.5831 93.2335 27.6223C94.2147 27.6223 94.2932 28.368 94.5286 29.0744C96.4124 34.4119 98.3747 39.7493 100.259 45.0868C100.612 46.1464 101.318 47.0098 102.142 48.3049C99.7483 48.2657 97.7076 48.1872 95.6668 48.148C95.1173 48.148 94.8818 47.7948 94.7249 47.2846C94.6071 46.8528 94.4501 46.4211 94.2932 45.9894C92.9195 42.2611 92.9195 42.2611 88.9165 42.3396C86.4047 42.3788 84.8349 44.7336 85.659 47.1668C85.816 47.4023 85.9338 47.6378 86.2477 48.3049ZM91.7029 38.9252C91.4282 37.0806 90.8395 35.5108 89.3089 34.2941C89.0734 34.8436 88.7987 35.2753 88.7987 35.6677C88.7987 36.7666 86.9542 37.63 88.053 38.6504C88.9165 39.4746 90.3686 39.0037 91.7029 38.9252Z" fill="black"/>
<path d="M79.0265 27.7401C79.4582 28.996 79.8899 30.2519 80.4394 31.9002C76.1223 30.1734 72.2762 29.31 69.4112 33.4701C67.5667 36.1388 67.8414 40.8091 70.0392 43.2031C73.0611 46.4605 76.6325 45.5578 80.1254 43.988C79.9684 47.5986 79.2227 48.3443 75.8083 48.5013C74.3955 48.5798 72.9434 48.6583 71.5305 48.7367C70.7456 48.5013 69.9214 48.305 69.1365 48.0696C63.7991 45.7933 61.3658 41.8295 61.9937 36.3743C62.5432 31.7432 66.1931 27.9756 71.2166 27.3477C73.4143 27.073 75.6513 27.3477 77.8491 27.3477L77.9669 27.4654H77.9276C78.3201 27.5439 78.6733 27.6224 79.0265 27.7401Z" fill="black"/>
<path d="M36.9948 36.6098C36.9948 40.5344 36.2491 44.4983 38.0152 48.3444C35.5427 48.3051 32.9917 48.2267 30.5192 48.1874C32.1283 41.5941 30.7155 34.9223 31.1472 28.2897C31.2257 27.3085 30.5585 26.2489 30.166 25.0715C32.874 25.3855 35.5035 24.5613 38.133 25.3462C37.819 25.621 37.5443 25.9349 37.505 26.3666C36.5239 29.1924 37.2303 32.0966 37.0341 34.9615C37.0341 35.4717 36.9948 36.0604 36.9948 36.6098Z" fill="black"/>
<path d="M38.0128 52.3469C40.0929 52.3077 41.9767 52.2292 44.4099 52.1899C42.4869 54.6232 40.8385 56.7425 39.1902 58.8618C37.1494 61.4127 37.1102 61.452 39.0725 64.003C41.5842 67.3389 43.8605 70.8318 46.6469 73.9715C44.8809 76.0123 42.9971 76.3655 40.7993 74.9919C39.5042 74.2069 38.523 73.0688 37.6204 71.8522C36.0113 69.7329 34.3629 67.6136 32.7931 65.4551C31.9297 64.2777 31.655 63.0218 32.7539 61.766C34.049 60.2354 35.3048 58.6263 36.5215 57.0172C37.4634 55.6828 38.5623 54.3092 38.0128 52.3469Z" fill="black"/>
<path d="M24.946 52.3476C27.1045 51.9944 29.2238 52.1906 31.9318 52.1906C31.8533 56.0759 31.7355 59.8436 31.6963 63.6112C31.657 66.9471 31.5786 70.283 31.6963 73.5796C31.7748 75.2672 31.1861 75.7774 29.577 75.6597C28.0464 75.5419 26.5158 75.5812 24.9067 75.5419C26.1626 72.2845 26.2019 55.5265 24.946 52.3476Z" fill="black"/>
<path d="M79.0275 27.7401C78.6743 27.6616 78.3211 27.5831 78.0071 27.4654H78.0464L77.9286 27.3476C78.2819 26.3272 79.263 26.0133 80.1657 25.5031C79.8125 24.208 80.4011 23.1091 81.1076 22.0887C79.3807 20.9898 76.869 20.1656 75.1029 20.9898C71.2176 22.7951 69.0983 20.9506 67.2537 17.8894C66.7828 17.1044 66.2333 16.398 65.6447 15.6916C64.8205 14.7104 64.1926 13.5723 63.0937 12.7874C61.877 13.7685 61.2491 14.9067 60.9351 16.2803C60.3464 18.6743 59.1691 20.5188 56.5396 21.186C55.0482 21.5785 53.6354 22.3242 52.1833 22.9128C51.0451 23.3838 50.221 24.0902 49.6323 25.1891C49.0044 26.4057 48.2194 27.5439 47.513 28.682C47.199 28.2895 46.8851 27.9363 46.6104 27.5439C46.7281 27.3869 46.9243 27.2691 47.0028 27.1122C48.6119 23.4623 51.4376 21.2253 55.2837 20.4011C58.2664 19.7339 59.4438 17.6146 60.2287 15.0244C60.3464 14.6712 60.4249 14.2395 60.5819 13.9255C62.2302 10.6289 63.0937 10.5111 65.3307 13.3368C66.5866 14.9067 67.8032 16.5158 69.0198 18.1248C70.9821 20.7543 71.0606 21.029 74.1218 19.9302C76.9475 18.9098 79.3807 20.2049 81.9317 20.5973C83.1484 20.7936 82.9129 21.7355 82.2849 22.5204C81.5393 23.4623 80.8721 24.3649 81.6178 25.6601C82.0495 26.4057 81.3823 26.8374 80.7151 27.0729C80.1264 27.3869 79.577 27.5439 79.0275 27.7401Z" fill="#FBF1FC"/>
<path d="M85.6602 75.463C86.092 75.5022 86.5237 75.5415 86.9161 75.5415C86.9554 75.8162 86.9161 76.1301 87.0731 76.2871C89.6633 79.5053 87.2693 81.9386 85.7387 84.4503C85.1893 85.353 84.2474 85.7062 83.1877 85.4707C81.5394 85.1175 79.8126 84.8035 78.4782 83.7046C73.8472 79.937 68.392 77.5822 63.29 74.5996C63.761 74.3248 64.2319 74.0501 64.7421 73.7754C65.1346 74.2071 65.6056 74.5211 66.1157 74.835C70.5898 77.4253 75.3386 79.5838 79.4594 82.8412C80.519 83.6654 81.7749 83.9793 83.07 84.2148C83.6979 84.3326 84.2474 84.2148 84.7183 83.8224C86.5629 82.331 87.1516 79.3876 86.0527 77.2683C85.778 76.7188 85.3463 76.1694 85.6602 75.463Z" fill="#FBF1FC"/>
<path d="M69.1763 48.0693C69.9612 48.3048 70.7854 48.501 71.5703 48.7365C72.159 49.0112 72.8654 49.2467 73.0616 49.9139C73.8465 52.1509 75.5734 51.837 77.2217 51.4052C80.4791 50.5418 80.4399 50.5026 80.2436 53.8777C80.2436 54.1132 80.3221 54.3879 80.3614 54.6627C80.6361 54.7411 80.9108 54.9374 81.107 54.8981C84.2467 54.2702 85.3456 56.8212 86.9155 58.6265C87.2294 58.9797 87.3864 59.4507 87.2294 59.8824C86.4837 61.9232 87.5826 63.0613 89.1132 64.0424C88.917 64.5919 88.7208 65.1806 88.4853 65.73C87.1117 63.9247 85.1494 62.4726 85.7381 59.6861C85.9735 58.6265 83.5403 56.3502 82.4414 56.1933C79.1447 55.6831 79.1447 55.6831 78.713 52.3079C77.4572 52.5041 76.1621 52.6219 74.9062 52.8966C73.925 53.1321 73.1009 52.8966 72.7869 52.0332C72.2375 50.5811 71.3348 49.9139 69.8827 50.1886C69.6865 49.4037 69.4117 48.7365 69.1763 48.0693Z" fill="#FBF1FC"/>
<path d="M45.3936 44.5371C45.2759 43.8699 45.0012 43.1635 45.3544 42.457C46.728 43.5559 47.7876 44.8903 48.4941 46.5779C49.7499 49.4821 51.2805 52.2685 52.6934 55.0942C52.2617 55.2905 51.8692 55.5259 51.4375 55.7222C50.2994 52.3863 48.4941 49.3251 46.9635 46.1462C46.6888 45.5182 46.1786 44.8118 45.3936 44.5371Z" fill="#FBF1FC"/>
<path d="M36.9951 36.6095C36.9951 36.06 36.9951 35.4713 37.0344 34.9219C38.565 35.6283 40.331 35.8638 41.7439 36.8449C42.0186 37.6691 41.9401 38.4933 41.8616 39.3174C40.7627 38.8465 40.5665 37.3944 39.4284 36.9234C38.6435 36.6095 37.8585 36.4525 36.9951 36.6095Z" fill="#FBF1FC"/>
<path d="M96.8074 27.7795C96.8466 26.8376 96.8466 26.0135 96.8859 25.1108C97.7493 25.1893 98.6519 24.7576 99.3584 25.621C100.026 26.4452 99.1621 27.1516 99.0052 27.8188C98.8482 28.3682 97.71 28.1328 96.8074 27.7795Z" fill="#D5D5D5"/>
<path d="M37.5029 26.327C37.5029 25.8561 37.7777 25.5814 38.1309 25.3066C39.112 26.0131 39.2298 27.6222 40.6426 27.9361C40.9958 28.1324 41.2705 28.4071 41.349 28.7995C39.112 29.4275 38.3663 27.7791 37.5029 26.327Z" fill="#FBF1FC"/>
<path d="M52.6918 55.0945C51.2789 52.2687 49.7876 49.4823 48.4924 46.5781C47.7468 44.9298 46.7264 43.5954 45.3528 42.4573C44.921 40.338 45.1958 38.2187 45.1958 35.6677C47.2758 37.7477 48.5317 39.9455 50.1015 41.8686C51.0434 43.0459 52.0638 44.1841 52.7702 45.4792C54.2224 48.3049 56.5379 48.5011 59.2458 47.9517C59.3243 43.9486 59.4421 39.9455 59.5206 35.9032C59.599 33.1952 58.8926 30.4087 60.541 27.7008C58.7356 27.426 57.0873 27.5045 55.3212 27.583C57.1658 31.4684 55.8314 35.4715 56.2239 39.3568C56.0669 39.4353 55.9099 39.5138 55.7529 39.5923C53.0057 35.9424 50.2585 32.2925 47.5113 28.6427C48.2177 27.4653 49.0026 26.3272 49.6306 25.1498C50.2193 24.0509 51.0827 23.3445 52.1816 22.8735C53.6337 22.2848 55.0465 21.5391 56.5379 21.1467C59.1673 20.4795 60.3447 18.6349 60.9334 16.2409C61.2866 14.8673 61.8753 13.7292 63.0919 12.748C64.1516 13.533 64.8188 14.6711 65.6429 15.6523C66.2316 16.3587 66.7811 17.0651 67.252 17.85C69.0966 20.9112 71.2159 22.7165 75.1012 20.9505C76.8673 20.1263 79.379 20.9112 81.1058 22.0493C80.3994 23.0697 79.8107 24.1294 80.1639 25.4637C79.2613 25.9739 78.2801 26.2879 77.9269 27.3083C75.6899 27.3083 73.4529 27.0336 71.2944 27.3083C66.2709 27.9362 62.621 31.7039 62.0715 36.3349C61.4436 41.7901 63.8769 45.7539 69.2143 48.0302C69.4498 48.6974 69.7245 49.3645 70.0385 50.1495C71.5298 49.8747 72.4325 50.5419 72.9427 51.994C73.2566 52.8574 74.0416 53.0929 75.062 52.8574C76.3178 52.5827 77.5737 52.465 78.8688 52.2688C79.3005 55.6439 79.3005 55.6439 82.5972 56.1541C83.6961 56.3111 86.1293 58.5874 85.8939 59.647C85.2659 62.4335 87.2675 63.9248 88.6411 65.6909C87.7777 68.3204 86.875 70.9106 86.0508 73.5401C85.8546 74.1288 85.3837 74.6782 85.7761 75.3846C85.4622 76.0911 85.8939 76.6797 86.1686 77.2292C87.2675 79.3485 86.6788 82.2919 84.8342 83.7833C84.3633 84.1757 83.8138 84.2935 83.1859 84.1757C81.8908 83.9403 80.6349 83.6263 79.5753 82.8021C75.4937 79.5447 70.7057 77.3862 66.2316 74.7959C65.7214 74.482 65.2505 74.168 64.858 73.7363C68.6256 70.5181 69.5283 66.3581 68.4686 61.727C67.252 56.5858 61.3651 53.2891 55.6744 54.4273C54.5756 54.702 53.6337 54.8982 52.6918 55.0945ZM70.6272 54.9767C71.1374 61.884 71.5691 68.5951 70.5487 75.2277C73.6884 75.3061 77.1028 75.4631 80.4779 75.4239C83.6568 75.3846 83.9708 74.9529 84.2455 71.46C81.8908 72.088 79.536 72.3234 76.8673 71.931C77.4952 66.2403 75.9254 60.5104 77.7699 54.7805C75.2582 54.859 72.7465 54.9375 70.6272 54.9767Z" fill="#D5D5D5"/>
<path d="M54.6926 58.666C57.9893 56.7822 61.4037 58.195 62.1886 61.8449C62.8558 65.0238 63.2483 68.242 60.7365 70.9892C59.9123 70.0865 58.6957 69.2624 58.3818 68.2027C57.9108 66.5937 57.4398 65.0238 56.7334 63.454C55.9877 61.9234 54.9673 60.432 54.6926 58.666Z" fill="#D5D5D5"/>
<path d="M59.4051 71.892C56.4617 73.1086 53.8322 72.0883 52.8118 69.1448C51.7521 66.0444 51.6344 62.9439 53.4005 60.0005C53.8714 60.7069 54.2639 61.4133 54.6956 62.1198C56.6579 65.2202 56.6579 69.2233 59.4051 71.892Z" fill="#D5D5D5"/>
<path d="M59.4024 71.8919C56.6552 69.2232 56.6552 65.2201 54.7321 62.1197C54.3004 61.4132 53.8687 60.7068 53.437 60.0004C53.6725 59.3724 54.1434 58.98 54.7321 58.666C55.0069 60.4321 56.0272 61.8842 56.7729 63.4933C57.4793 65.0239 57.9503 66.5937 58.4212 68.242C58.7352 69.3017 59.9518 70.0866 60.776 71.0285C60.462 71.5779 59.9518 71.7349 59.4024 71.8919Z" fill="#FBF1FC"/>
<path d="M37.5048 26.3267C38.3682 27.7788 39.1139 29.3878 41.3117 28.7992C42.2143 31.4286 41.7826 34.1366 41.7434 36.8446C40.3305 35.8634 38.5645 35.628 37.0339 34.9215C37.1909 32.0566 36.4844 29.1524 37.5048 26.3267Z" fill="#D5D5D5"/>
<path d="M94.0189 60.5889C94.8823 62.5512 95.1178 64.3565 96.1382 66.0048C94.6469 66.358 93.5087 66.358 92.2136 66.0833C92.4883 64.1995 93.234 62.5904 94.0189 60.5889Z" fill="#D5D5D5"/>
<path d="M91.7038 38.925C90.3695 39.0035 88.9174 39.4744 88.054 38.6502C86.9551 37.6299 88.7996 36.7664 88.7996 35.6676C88.7996 35.2751 89.1136 34.8434 89.3098 34.2939C90.8404 35.5106 91.4291 37.0804 91.7038 38.925Z" fill="#D5D5D5"/>
<path d="M70.6298 54.9765C72.749 54.9373 75.2608 54.8588 77.7725 54.7803C75.928 60.5102 77.4586 66.2401 76.8699 71.9308C79.5386 72.3232 81.8934 72.0877 84.2481 71.4598C83.9734 74.9527 83.6594 75.3844 80.4805 75.4237C77.1053 75.4629 73.6909 75.3059 70.5513 75.2274C71.6109 68.5949 71.14 61.8838 70.6298 54.9765Z" fill="black"/>
</svg>
