<svg width="292" height="79" viewBox="0 0 292 79" fill="none" xmlns="http://www.w3.org/2000/svg">
<path fill-rule="evenodd" clip-rule="evenodd" d="M175.452 72.4993V50.6587H181.079V72.4993H175.452Z" fill="black"/>
<path fill-rule="evenodd" clip-rule="evenodd" d="M231.002 58.7932C231.002 58.3474 231.113 57.9017 231.28 57.3445C231.448 56.7874 231.726 56.286 232.06 55.8402C232.45 55.3388 232.952 54.9488 233.565 54.6702C234.178 54.3359 235.013 54.1688 235.961 54.1688C237.409 54.1688 238.524 54.5588 239.192 55.3388C239.916 56.1188 240.418 57.2888 240.696 58.7932H231.002ZM246.268 57.7346C245.878 56.1745 245.265 54.8373 244.374 53.6116C243.482 52.3858 242.368 51.4387 240.975 50.7144C239.582 49.9901 237.966 49.6558 236.128 49.6558C234.456 49.6558 232.952 49.9343 231.615 50.5472C230.278 51.1601 229.108 51.9401 228.105 52.943C227.102 53.9459 226.377 55.1716 225.82 56.5645C225.263 57.9574 225.04 59.4618 225.04 61.0775C225.04 62.749 225.319 64.309 225.82 65.7019C226.322 67.0948 227.046 68.3206 228.049 69.3235C228.996 70.3263 230.166 71.1064 231.559 71.6635C232.952 72.2207 234.456 72.4993 236.183 72.4993C238.635 72.4993 240.752 71.9421 242.479 70.8278C244.207 69.7135 245.488 67.8191 246.324 65.2562H241.086C240.864 65.9248 240.362 66.5934 239.471 67.1505C238.579 67.7634 237.576 68.042 236.351 68.042C234.679 68.042 233.398 67.5963 232.506 66.7605C231.615 65.8691 231.113 64.4762 231.058 62.5819H246.714C246.769 60.8547 246.658 59.2946 246.268 57.7346Z" fill="black"/>
<path fill-rule="evenodd" clip-rule="evenodd" d="M220.975 55.6173C217.855 55.6173 216.407 57.6231 216.407 60.8546V72.4435H210.724V60.9103C210.891 53.723 214.457 49.7114 221.923 49.7114H223.594V55.5059L220.975 55.6173Z" fill="black"/>
<path fill-rule="evenodd" clip-rule="evenodd" d="M196.904 67.7638C193.728 67.7638 192.168 65.4794 192.223 60.9664C192.391 56.6763 193.951 54.5591 196.959 54.5591C199.968 54.5591 201.528 56.6763 201.695 60.9664C201.695 65.4794 200.079 67.7638 196.904 67.7638ZM198.519 49.5447C195.734 49.5447 193.616 50.659 192.223 52.9991V42.9702H191.611C188.825 43.0259 187.32 44.4745 186.652 45.7003V62.4708C186.652 69.1567 190.162 72.4996 197.126 72.4439C204.035 72.3325 207.49 68.5438 207.49 61.1336C207.434 53.612 204.481 49.7675 198.519 49.5447Z" fill="black"/>
<path fill-rule="evenodd" clip-rule="evenodd" d="M163.864 72.4996V46.5917C163.864 45.756 165.591 42.9702 167.987 42.9702H169.435V72.4996H163.864Z" fill="black"/>
<path fill-rule="evenodd" clip-rule="evenodd" d="M175.448 47.9848V42.8589H181.076V47.9848H175.448Z" fill="black"/>
<path fill-rule="evenodd" clip-rule="evenodd" d="M284.599 27.5369C284.432 28.3727 284.153 29.1527 283.708 29.8213C283.262 30.4898 282.705 31.047 282.036 31.437C281.312 31.827 280.42 32.0499 279.418 32.0499C278.359 32.0499 277.523 31.827 276.799 31.437C276.13 31.047 275.517 30.4898 275.127 29.8213C274.682 29.1527 274.403 28.3727 274.236 27.5369C274.069 26.7012 273.957 25.8097 273.957 24.9183C273.957 24.0268 274.069 23.1354 274.236 22.2439C274.403 21.3524 274.682 20.6281 275.127 19.9595C275.573 19.291 276.13 18.7338 276.799 18.3438C277.468 17.8981 278.359 17.7309 279.418 17.7309C280.476 17.7309 281.312 17.9538 282.036 18.3438C282.761 18.7895 283.318 19.291 283.708 19.9595C284.153 20.6281 284.432 21.4082 284.599 22.2439C284.766 23.1354 284.878 23.9711 284.878 24.9183C284.878 25.8097 284.766 26.7012 284.599 27.5369ZM290.226 20.0153C289.669 18.5667 288.889 17.2852 287.886 16.2823C286.884 15.2794 285.658 14.4437 284.209 13.8865C282.761 13.3294 281.145 13.0508 279.418 13.0508C277.635 13.0508 276.075 13.3294 274.626 13.8865C273.177 14.4437 272.007 15.2237 270.949 16.2823C269.946 17.3409 269.166 18.5667 268.609 20.0153C268.052 21.4639 267.773 23.1354 267.773 24.9183C267.773 26.7012 268.052 28.3169 268.609 29.7655C269.166 31.2142 269.946 32.4399 270.949 33.4985C271.952 34.5571 273.177 35.3371 274.626 35.8943C276.075 36.4514 277.635 36.73 279.418 36.73C281.2 36.73 282.816 36.4514 284.209 35.8943C285.658 35.3371 286.884 34.5571 287.886 33.4985C288.889 32.4956 289.669 31.2142 290.226 29.7655C290.784 28.3169 291.062 26.7012 291.062 24.9183C291.062 23.1354 290.784 21.4639 290.226 20.0153Z" fill="black"/>
<path fill-rule="evenodd" clip-rule="evenodd" d="M207.04 17.6752C206.037 17.6752 205.201 17.8981 204.533 18.3438C203.864 18.7895 203.307 19.4024 202.917 20.071C202.471 20.7953 202.193 21.5753 202.026 22.4111C201.859 23.2468 201.747 24.1382 201.747 24.974C201.747 25.8097 201.859 26.5897 202.026 27.4812C202.193 28.3169 202.471 29.097 202.861 29.7655C203.251 30.4341 203.809 30.9913 204.477 31.437C205.146 31.8828 205.982 32.1056 206.929 32.1056C208.433 32.1056 209.547 31.7156 210.327 30.8799C211.107 30.0441 211.609 28.9298 211.832 27.5369H217.793C217.403 30.5456 216.233 32.8299 214.339 34.39C212.445 35.95 209.993 36.73 206.984 36.73C205.313 36.73 203.753 36.4514 202.36 35.8943C200.967 35.3371 199.741 34.5571 198.794 33.4985C197.791 32.4956 197.067 31.2699 196.51 29.877C195.953 28.4841 195.674 26.924 195.674 25.2526C195.674 23.5254 195.953 21.9096 196.454 20.4053C196.956 18.9009 197.736 17.6195 198.683 16.5052C199.686 15.3908 200.856 14.5551 202.304 13.9422C203.753 13.3294 205.369 13.0508 207.152 13.0508C208.489 13.0508 209.77 13.2179 210.996 13.5522C212.222 13.8865 213.336 14.4437 214.283 15.168C215.23 15.8923 216.066 16.7837 216.679 17.8423C217.292 18.9009 217.626 20.1824 217.738 21.631H211.665C211.163 18.9567 209.659 17.6752 207.04 17.6752Z" fill="black"/>
<path fill-rule="evenodd" clip-rule="evenodd" d="M161.465 22.5224C161.521 22.0767 161.577 21.5753 161.744 21.0738C161.911 20.5167 162.19 20.0152 162.58 19.5138C162.97 19.0123 163.471 18.6223 164.14 18.288C164.808 17.9537 165.588 17.7866 166.591 17.7866C168.095 17.7866 169.21 18.1766 169.934 19.0123C170.658 19.7924 171.16 21.0181 171.438 22.5224H161.465ZM177.066 21.4081C176.676 19.8481 176.007 18.3995 175.116 17.1737C174.224 15.948 173.054 14.9451 171.661 14.2208C170.268 13.4965 168.597 13.1064 166.703 13.1064C165.031 13.1064 163.471 13.385 162.078 13.9979C160.685 14.6108 159.459 15.4465 158.457 16.4494C157.454 17.508 156.674 18.7338 156.116 20.1824C155.559 21.631 155.281 23.191 155.281 24.8625C155.281 26.5897 155.559 28.1497 156.061 29.5984C156.618 31.047 157.342 32.2727 158.345 33.3313C159.348 34.3899 160.518 35.1699 161.911 35.7271C163.304 36.2843 164.92 36.5628 166.647 36.5628C169.154 36.5628 171.327 36.0057 173.11 34.8356C174.893 33.6656 176.23 31.7713 177.066 29.0969H171.661C171.438 29.7655 170.937 30.4341 170.045 31.047C169.154 31.6598 168.095 31.9941 166.87 31.9941C165.142 31.9941 163.805 31.5484 162.914 30.6569C161.967 29.7655 161.465 28.3169 161.41 26.3668H177.456C177.623 24.6396 177.456 23.0239 177.066 21.4081Z" fill="black"/>
<path fill-rule="evenodd" clip-rule="evenodd" d="M253.511 31.8824C250.224 31.8824 248.664 29.5423 248.72 24.9179C248.887 20.5164 250.503 18.3434 253.623 18.3434C256.743 18.3434 258.359 20.5164 258.47 24.9179C258.47 29.5423 256.799 31.8824 253.511 31.8824ZM258.47 8.03601V9.48462V16.7834C257.022 14.3876 254.793 13.2176 251.951 13.2176C245.878 13.4405 242.814 17.3963 242.814 25.1965C242.814 32.8296 246.38 36.674 253.456 36.7854C260.587 36.8411 264.153 33.3867 264.153 26.5337V5.9188C264.153 5.9188 260.309 5.36165 258.47 8.03601Z" fill="black"/>
<path fill-rule="evenodd" clip-rule="evenodd" d="M233.954 26.8683C233.954 30.0998 232.004 31.9942 228.828 31.9942C226.989 31.9942 226.042 31.1584 225.931 29.3198C225.931 27.6483 227.101 26.534 229.385 26.144C231.057 25.8097 232.617 25.5869 233.954 25.0297V26.8683ZM229.887 13.0508C223.368 13.0508 221.139 16.0037 220.916 20.4053H226.265C226.544 19.3467 227.435 17.7309 230.11 17.7309C232.505 17.7866 233.675 18.3995 233.843 19.681C233.843 20.9624 232.561 21.6867 230.11 21.9653C224.315 22.5225 220.359 23.9711 220.192 29.487C220.192 34.5571 223.981 37.0643 229.497 36.6743C235.681 36.2286 239.47 33.4428 239.47 27.1469V19.3467C239.358 15.1123 236.183 13.0508 229.887 13.0508Z" fill="black"/>
<path fill-rule="evenodd" clip-rule="evenodd" d="M191.441 19.2351C188.266 19.2351 186.761 21.2966 186.761 24.6395V36.507H180.911V24.6952C181.078 17.285 184.756 13.2178 192.389 13.2178H194.116V19.1794L191.441 19.2351Z" fill="black"/>
<path fill-rule="evenodd" clip-rule="evenodd" d="M149.711 36.507C147.816 36.3955 146.869 35.4484 146.869 33.6655V21.9094C146.758 19.5136 145.421 18.3436 142.913 18.3436C140.35 18.3436 139.069 19.5136 139.013 21.9094V36.4512H133.219V21.8537C133.107 19.4579 131.77 18.2879 129.263 18.2879C126.7 18.2879 125.419 19.4579 125.363 21.8537V36.4512H119.513V23.0237C119.513 16.505 122.8 13.2734 129.319 13.2734C132.272 13.2734 134.5 13.942 136.172 15.2235C137.788 13.942 140.072 13.3849 143.025 13.3849C149.544 13.3849 152.775 16.6164 152.775 23.1351V36.5627H149.711V36.507Z" fill="black"/>
<path fill-rule="evenodd" clip-rule="evenodd" d="M57.0693 0.709473C91.764 1.21658 113.02 18.0357 113.02 39.4188C113.02 60.8019 87.9607 78.1281 57.0271 78.1281C26.0934 78.1281 1.58315 61.5625 0.822492 39.5033C0.0618286 17.4441 23.093 0.963027 57.0693 0.709473Z" fill="black"/>
<path d="M57.3641 2.90723C90.6642 3.37208 111.075 18.374 111.075 37.4329C111.075 56.4917 87.03 71.9585 57.3641 71.9585C27.6982 71.9585 4.11768 57.2101 3.39928 37.5174C3.0612 28.2204 7.79422 20.0221 16.3305 13.9791C25.8811 7.17539 40.1647 3.034 57.3641 2.90723Z" stroke="#1B1918" stroke-width="0.5669"/>
<path fill-rule="evenodd" clip-rule="evenodd" d="M22.6708 16.092C25.1641 16.8104 27.6574 17.5288 30.1507 18.2472C34.3766 19.4305 37.8841 18.9657 40.9268 17.6134C42.3636 17.064 44.2652 16.6837 46.0824 16.8527C51.5338 12.0352 58.3797 11.5703 63.5776 12.2465C70.2123 13.2607 77.8189 19.5995 87.9188 17.8247C91.1728 17.4443 94.5535 16.7682 98.8217 14.6975C89.736 8.4854 74.8608 2.61139 58.2952 2.94947C48.5334 3.37206 30.1084 3.71013 16.4165 13.9791C18.4449 14.6552 20.5579 15.3736 22.6708 16.092Z" fill="#9E9C8F" stroke="#9E9C8F" stroke-width="0.5669"/>
<path fill-rule="evenodd" clip-rule="evenodd" d="M13.8367 37.8551C18.0626 38.9961 22.7111 40.8555 26.3454 43.0952C24.9931 48.5466 28.6274 51.0399 32.5152 50.3215C33.0223 52.2654 34.5014 56.2378 39.657 55.1391C40.6712 58.562 45.3197 59.9143 46.8833 58.5198C48.1511 62.0695 52.2925 65.0699 57.5326 60.7173C60.3639 62.957 66.1957 62.957 67.717 60.1679C69.999 61.1821 73.2107 60.5905 74.9433 56.1533C78.8312 56.2378 80.7751 55.942 82.4232 50.4483C84.1981 51.2935 90.4524 49.9834 88.762 42.8417C96.8335 39.1229 104.187 36.7986 110.948 35.5309C111.54 64.6473 72.3655 72.3385 55.7154 71.9159C27.3596 70.4791 3.44099 58.8156 3.31421 35.3618C6.86397 36.207 10.3715 37.0099 13.8367 37.8551Z" fill="#9E9C8F"/>
<path fill-rule="evenodd" clip-rule="evenodd" d="M100.597 16.1341C94.2162 19.5148 84.7501 21.501 76.7632 19.0077C70.5511 16.3876 64.2122 13.7253 56.4788 14.4014C51.8303 14.824 46.5479 18.9232 39.1104 27.0792C40.5894 28.9386 43.0404 29.5724 47.0973 27.375C50.14 25.262 53.0558 23.2336 56.0985 21.1206C58.9721 19.5993 61.9725 20.2332 64.6771 21.7968C72.2415 28.2202 79.7213 34.5168 87.3279 40.8979C96.4136 37.01 105.034 34.4322 110.782 33.418C109.894 25.8959 105.246 19.8951 100.597 16.1341Z" fill="white"/>
<path fill-rule="evenodd" clip-rule="evenodd" d="M43.1656 19.092C41.3907 21.1627 39.6158 23.2334 37.841 25.3041C36.9958 26.5296 37.1225 27.4171 37.7142 28.22C39.5313 30.4174 41.771 30.3752 44.053 30.5865C47.6873 29.9103 49.5467 28.4735 51.6174 26.5719C53.2232 25.2196 55.3362 23.6137 57.745 22.346C60.027 21.6698 61.8018 22.4727 63.5767 23.5292C71.3946 30.1216 79.1281 36.7986 86.946 43.391C88.8899 48.0395 84.0724 48.9269 82.5933 48.124C79.0858 45.3772 76.339 42.5881 72.8315 39.8412C72.6202 40.3061 72.4089 40.7709 72.1976 41.2358C74.4373 43.3487 76.677 45.4617 78.9168 47.5746C82.2975 50.9554 79.2548 53.7445 76.4235 54.1248C72.8315 54.0403 70.7608 49.434 67.8871 47.4479C67.042 46.6872 66.3658 47.4901 66.9997 48.5888C68.6056 50.237 70.2114 52.0118 71.8172 53.6599C74.5641 57.8858 69.2817 58.8578 68.5633 58.5197C66.5349 57.8013 64.4219 54.9277 62.2244 53.1528C61.2525 52.6457 60.4073 52.9415 61.0412 54.3783C62.6048 55.9842 64.2951 57.421 65.8587 59.0268C65.0558 61.1398 60.9989 61.2666 58.5056 58.9001C60.2383 55.6461 58.6747 50.6595 52.5048 50.3637C52.9274 46.9407 49.5045 41.8697 44.5601 43.9404C41.8556 39.799 37.4184 40.2216 35.4744 41.9119C33.615 39.968 30.9105 38.8693 27.403 41.4893C21.3177 38.0663 12.9926 34.9814 3.56885 33.122C4.58307 26.7409 8.38638 19.9372 14.2604 15.5C18.8244 16.9368 23.5996 18.1201 28.1636 19.5569C36.1083 22.2192 39.2355 19.6836 43.1656 19.092Z" fill="white"/>
<path fill-rule="evenodd" clip-rule="evenodd" d="M52.7173 51.6317C55.2106 51.6317 57.4926 53.7024 57.4926 56.1957C57.4926 58.7312 55.2106 60.7174 52.7173 60.7174C50.224 60.7174 48.5759 58.4354 48.5759 55.8999C48.5759 55.7308 48.5759 55.6041 48.5759 55.435C47.7308 56.407 46.632 56.8718 45.2797 57.0409C43.2936 56.8296 41.7722 54.9702 41.3496 52.6037C40.5045 53.1953 39.448 53.2798 38.2647 53.4911C35.7714 53.2375 34.0388 50.4484 34.3769 47.3213C34.4192 47.1522 34.4614 46.9832 34.5459 46.8142C33.9121 47.7861 32.8556 48.4623 31.5878 48.4623C29.6439 48.4623 28.1226 46.8987 28.1226 44.9548C28.1226 43.0108 29.6861 41.4473 31.5878 41.4473C33.5317 41.4473 35.053 43.0108 35.053 44.9548C35.053 45.1661 35.053 45.3351 35.0108 45.5464C35.8137 43.8138 37.0815 42.546 39.4902 42.1657C42.0258 42.5037 43.3781 43.4334 43.5049 46.0112C44.2655 45.3351 45.2375 44.828 46.5475 44.6167C49.8437 45.0393 51.196 46.5606 50.5621 51.3781C50.4776 51.7162 50.3508 52.0543 50.2663 52.3501C50.9847 51.8853 51.7876 51.6317 52.7173 51.6317Z" fill="white"/>
</svg>
