<svg width="215" height="77" viewBox="0 0 215 77" fill="none" xmlns="http://www.w3.org/2000/svg">
<path fill-rule="evenodd" clip-rule="evenodd" d="M27.5404 3.41446C13.5499 19.764 0.135603 40.0388 0.00109207 55.1936C-0.0512963 60.8956 1.77805 65.8734 6.16593 69.6438C12.4809 75.0739 19.4386 76.9887 26.3624 77C36.4804 77.0141 46.5276 72.952 54.3944 69.8199C67.643 64.5476 214.094 1.26158 214.094 1.26158C215.507 0.557099 215.242 -0.320675 213.474 0.11751C212.76 0.295038 54.039 43.0977 54.039 43.0977C51.0325 43.9438 47.9259 44.3864 44.8016 44.4136C32.6036 44.4855 21.7493 37.7479 21.8371 23.5498C21.8711 17.9943 23.5801 11.2947 27.5404 3.41446Z" fill="black"/>
</svg>
