<svg width="323" height="51" viewBox="0 0 323 51" fill="none" xmlns="http://www.w3.org/2000/svg">
<path d="M21.6943 35.3915C22.1381 36.5064 21.9974 37.9353 21.7809 38.8013C21.402 40.3384 20.3628 41.908 17.2886 41.908C14.4092 41.908 12.6556 40.241 12.6556 37.7296V33.259H0.282959V36.8095C0.282959 47.093 8.36903 50.1997 17.0396 50.1997C25.3747 50.1997 32.2376 47.3637 33.3309 39.6673C33.8938 35.6838 33.4824 33.075 33.2876 32.1116C31.3391 22.4559 13.8464 19.5766 12.5366 14.175C12.3547 13.3783 12.3395 12.5524 12.4933 11.7503C12.818 10.2673 13.8247 8.65441 16.7041 8.65441C19.4103 8.65441 20.9799 10.3214 20.9799 12.8328V15.6905H32.4865V12.4431C32.4865 2.39771 23.4695 0.828125 16.953 0.828125C8.7479 0.828125 2.04739 3.54513 0.824196 11.0683C0.499454 13.125 0.44533 14.9652 0.932443 17.2817C2.93502 26.6992 19.3128 29.4271 21.6943 35.3915Z" fill="black"/>
<path d="M49.6436 2.30038L41.092 48.4029H53.5513L59.8621 6.56532H60.1219L66.2595 48.4029H78.6539L70.1565 2.28955L49.6436 2.30038ZM119.301 2.30038L113.618 37.5457H113.347L107.675 2.30038H88.8724L87.8549 48.4029H99.3941L99.6755 6.95501H99.9353L107.632 48.4029H119.333L127.04 6.96584H127.289L127.582 48.4029H139.11L138.092 2.28955L119.301 2.30038Z" fill="black"/>
<path d="M171.584 35.3051C172.028 36.42 171.887 37.8489 171.671 38.7149C171.292 40.252 170.253 41.8216 167.179 41.8216C164.299 41.8216 162.546 40.1546 162.546 37.6432V33.1726H150.173V36.7231C150.173 47.0066 158.259 50.1133 166.93 50.1133C175.265 50.1133 182.127 47.2772 183.221 39.5808C183.784 35.5973 183.372 32.9886 183.177 32.0252C181.229 22.3695 163.736 19.4901 162.426 14.0886C162.245 13.2919 162.229 12.466 162.383 11.6639C162.708 10.1809 163.715 8.56798 166.594 8.56798C169.3 8.56798 170.87 10.235 170.87 12.7463V15.6041H182.376V12.3566C182.376 2.31129 173.359 0.741699 166.843 0.741699C158.638 0.741699 151.937 3.45871 150.714 10.9819C150.389 13.0386 150.335 14.8788 150.822 17.1953C152.825 26.6128 169.203 29.3406 171.584 35.3051Z" fill="black"/>
<path d="M210.283 41.4969C213.487 41.4969 214.472 39.2887 214.699 38.1629C214.797 37.665 214.807 36.9939 214.807 36.3985V2.30059H226.477V35.3485C226.479 36.3595 226.443 37.3706 226.368 38.3794C225.556 46.9851 218.758 49.7779 210.283 49.7779C201.796 49.7779 194.998 46.9851 194.186 38.3794C194.154 37.9248 194.067 36.1928 194.078 35.3485V2.28977H205.747V36.3877C205.736 36.9939 205.758 37.665 205.855 38.1629C206.072 39.2887 207.068 41.4969 210.283 41.4969ZM266.658 2.30059L267.286 38.4877H267.037L256.429 2.30059H239.325V47.916H250.659L250.031 10.4733H250.28L261.657 47.916H278.078V2.30059H266.658ZM306.439 41.0207C309.773 41.0207 310.942 38.9098 311.148 37.665C311.245 37.1562 311.256 36.5067 311.256 35.933V29.2217H306.525V22.5104H322.86V34.8722C322.86 35.7382 322.838 36.366 322.698 37.9031C321.94 46.3031 314.655 49.3016 306.482 49.3016C298.309 49.3016 291.035 46.3031 290.267 37.9031C290.137 36.366 290.104 35.7382 290.104 34.8722V15.4743C290.104 14.6516 290.213 13.2011 290.299 12.4434C291.328 3.81605 298.309 1.04492 306.482 1.04492C314.655 1.04492 321.821 3.7944 322.665 12.4325C322.817 13.9047 322.773 15.4635 322.773 15.4635V17.0114H311.148V14.4243C311.148 14.4243 311.148 13.3418 311.007 12.6707C310.79 11.6532 309.924 9.31502 306.396 9.31502C303.04 9.31502 302.055 11.5341 301.806 12.6707C301.665 13.2769 301.611 14.0995 301.611 14.8465V35.9222C301.611 36.5067 301.633 37.1562 301.719 37.6758C301.936 38.9098 303.105 41.0207 306.439 41.0207Z" fill="black"/>
</svg>
